# Blender v2.72 (sub 0) OBJ File: ''
# www.blender.org
o Cylinder_Cylinder.001
v 0.000000 -0.050000 -1.000000
v 0.000000 0.050000 -1.000000
v 0.195090 -0.050000 -0.980785
v 0.195090 0.050000 -0.980785
v 0.382683 -0.050000 -0.923880
v 0.382683 0.050000 -0.923880
v 0.555570 -0.050000 -0.831470
v 0.555570 0.050000 -0.831470
v 0.707107 -0.050000 -0.707107
v 0.707107 0.050000 -0.707107
v 0.831470 -0.050000 -0.555570
v 0.831470 0.050000 -0.555570
v 0.923880 -0.050000 -0.382683
v 0.923880 0.050000 -0.382683
v 0.980785 -0.050000 -0.195090
v 0.980785 0.050000 -0.195090
v 1.000000 -0.050000 -0.000000
v 1.000000 0.050000 -0.000000
v 0.980785 -0.050000 0.195090
v 0.980785 0.050000 0.195090
v 0.923880 -0.050000 0.382683
v 0.923880 0.050000 0.382683
v 0.831470 -0.050000 0.555570
v 0.831470 0.050000 0.555570
v 0.707107 -0.050000 0.707107
v 0.707107 0.050000 0.707107
v 0.555570 -0.050000 0.831470
v 0.555570 0.050000 0.831470
v 0.382683 -0.050000 0.923880
v 0.382683 0.050000 0.923880
v 0.195090 -0.050000 0.980785
v 0.195090 0.050000 0.980785
v -0.000000 -0.050000 1.000000
v -0.000000 0.050000 1.000000
v -0.195091 -0.050000 0.980785
v -0.195091 0.050000 0.980785
v -0.382684 -0.050000 0.923879
v -0.382684 0.050000 0.923879
v -0.555571 -0.050000 0.831469
v -0.555571 0.050000 0.831469
v -0.707107 -0.050000 0.707106
v -0.707107 0.050000 0.707106
v -0.831470 -0.050000 0.555570
v -0.831470 0.050000 0.555570
v -0.923880 -0.050000 0.382683
v -0.923880 0.050000 0.382683
v -0.980785 -0.050000 0.195089
v -0.980785 0.050000 0.195089
v -1.000000 -0.050000 -0.000001
v -1.000000 0.050000 -0.000001
v -0.980785 -0.050000 -0.195091
v -0.980785 0.050000 -0.195091
v -0.923879 -0.050000 -0.382684
v -0.923879 0.050000 -0.382684
v -0.831469 -0.050000 -0.555571
v -0.831469 0.050000 -0.555571
v -0.707106 -0.050000 -0.707108
v -0.707106 0.050000 -0.707108
v -0.555569 -0.050000 -0.831470
v -0.555569 0.050000 -0.831470
v -0.382682 -0.050000 -0.923880
v -0.382682 0.050000 -0.923880
v -0.195089 -0.050000 -0.980786
v -0.195089 0.050000 -0.980786
vt 0.977461 0.028937
vt 0.977458 0.213148
vt 0.857328 0.213148
vt 0.857330 0.028937
vt 0.737197 0.213148
vt 0.737200 0.028937
vt 0.617067 0.213148
vt 0.617069 0.028937
vt 0.496937 0.213148
vt 0.496938 0.028937
vt 0.376807 0.213148
vt 0.376807 0.028937
vt 0.256677 0.213148
vt 0.256677 0.028937
vt 0.136546 0.213148
vt 0.136546 0.028937
vt 0.016416 0.213148
vt 0.016415 0.028937
vt 0.857393 0.213148
vt 0.857393 0.028937
vt 0.737263 0.213148
vt 0.737263 0.028937
vt 0.497002 0.213148
vt 0.497001 0.028937
vt 0.376872 0.213148
vt 0.376870 0.028937
vt 0.136611 0.213148
vt 0.136608 0.028937
vt 0.016481 0.213148
vt 0.016477 0.028937
vt 0.434128 0.791948
vt 0.401462 0.839118
vt 0.363051 0.876179
vt 0.320370 0.901707
vt 0.275061 0.914721
vt 0.228864 0.914721
vt 0.183554 0.901707
vt 0.140873 0.876178
vt 0.102462 0.839117
vt 0.069795 0.791947
vt 0.044130 0.736481
vt 0.026451 0.674850
vt 0.017439 0.609424
vt 0.017439 0.542715
vt 0.026451 0.477287
vt 0.044130 0.415657
vt 0.069796 0.360191
vt 0.102463 0.313021
vt 0.140874 0.275960
vt 0.183554 0.250431
vt 0.228864 0.237417
vt 0.275061 0.237417
vt 0.320370 0.250432
vt 0.363051 0.275960
vt 0.401462 0.313021
vt 0.434128 0.360191
vt 0.459794 0.415657
vt 0.477473 0.477288
vt 0.486485 0.542715
vt 0.486485 0.609424
vt 0.477473 0.674851
vt 0.459794 0.736482
vt 0.590349 0.314841
vt 0.628754 0.277699
vt 0.671427 0.252115
vt 0.716728 0.239072
vt 0.762917 0.239072
vt 0.808219 0.252114
vt 0.850892 0.277697
vt 0.889297 0.314839
vt 0.921958 0.362111
vt 0.947620 0.417698
vt 0.965296 0.479463
vt 0.974307 0.545032
vt 0.974307 0.611886
vt 0.965295 0.677454
vt 0.947620 0.739218
vt 0.921959 0.794805
vt 0.889298 0.842078
vt 0.850892 0.879220
vt 0.808219 0.904804
vt 0.762917 0.917846
vt 0.716728 0.917846
vt 0.671427 0.904803
vt 0.628753 0.879219
vt 0.590349 0.842077
vt 0.557688 0.794805
vt 0.532027 0.739218
vt 0.514352 0.677454
vt 0.505341 0.611886
vt 0.505341 0.545033
vt 0.514352 0.479464
vt 0.532027 0.417700
vt 0.557689 0.362113
vn 0.098000 0.000000 -0.995200
vn 0.290300 0.000000 -0.956900
vn 0.471400 0.000000 -0.881900
vn 0.634400 0.000000 -0.773000
vn 0.773000 0.000000 -0.634400
vn 0.881900 0.000000 -0.471400
vn 0.956900 0.000000 -0.290300
vn 0.995200 0.000000 -0.098000
vn 0.995200 0.000000 0.098000
vn 0.956900 0.000000 0.290300
vn 0.881900 0.000000 0.471400
vn 0.773000 0.000000 0.634400
vn 0.634400 0.000000 0.773000
vn 0.471400 0.000000 0.881900
vn 0.290300 0.000000 0.956900
vn 0.098000 0.000000 0.995200
vn -0.098000 0.000000 0.995200
vn -0.290300 0.000000 0.956900
vn -0.471400 0.000000 0.881900
vn -0.634400 0.000000 0.773000
vn -0.773000 0.000000 0.634400
vn -0.881900 0.000000 0.471400
vn -0.956900 0.000000 0.290300
vn -0.995200 0.000000 0.098000
vn -0.995200 0.000000 -0.098000
vn -0.956900 0.000000 -0.290300
vn -0.881900 0.000000 -0.471400
vn -0.773000 0.000000 -0.634400
vn -0.634400 0.000000 -0.773000
vn -0.471400 0.000000 -0.881900
vn 0.000000 1.000000 -0.000000
vn -0.098000 0.000000 -0.995200
vn -0.290300 0.000000 -0.956900
vn 0.000000 -1.000000 -0.000000
s off
f 1/1/1 2/2/1 4/3/1 3/4/1
f 3/4/2 4/3/2 6/5/2 5/6/2
f 5/6/3 6/5/3 8/7/3 7/8/3
f 7/8/4 8/7/4 10/9/4 9/10/4
f 9/10/5 10/9/5 12/11/5 11/12/5
f 11/12/6 12/11/6 14/13/6 13/14/6
f 13/14/7 14/13/7 16/15/7 15/16/7
f 15/16/8 16/15/8 18/17/8 17/18/8
f 17/1/9 18/2/9 20/19/9 19/20/9
f 19/20/10 20/19/10 22/21/10 21/22/10
f 21/22/11 22/21/11 24/7/11 23/8/11
f 23/8/12 24/7/12 26/23/12 25/24/12
f 25/24/13 26/23/13 28/25/13 27/26/13
f 27/26/14 28/25/14 30/13/14 29/14/14
f 29/14/15 30/13/15 32/27/15 31/28/15
f 31/28/16 32/27/16 34/29/16 33/30/16
f 33/1/17 34/2/17 36/19/17 35/20/17
f 35/20/18 36/19/18 38/21/18 37/22/18
f 37/22/19 38/21/19 40/7/19 39/8/19
f 39/8/20 40/7/20 42/23/20 41/24/20
f 41/24/21 42/23/21 44/25/21 43/26/21
f 43/26/22 44/25/22 46/13/22 45/14/22
f 45/14/23 46/13/23 48/27/23 47/28/23
f 47/28/24 48/27/24 50/29/24 49/30/24
f 49/1/25 50/2/25 52/3/25 51/4/25
f 51/4/26 52/3/26 54/5/26 53/6/26
f 53/6/27 54/5/27 56/7/27 55/8/27
f 55/8/28 56/7/28 58/9/28 57/10/28
f 57/10/29 58/9/29 60/11/29 59/12/29
f 59/12/30 60/11/30 62/13/30 61/14/30
f 4/31/31 2/32/31 64/33/31 62/34/31 60/35/31 58/36/31 56/37/31 54/38/31 52/39/31 50/40/31 48/41/31 46/42/31 44/43/31 42/44/31 40/45/31 38/46/31 36/47/31 34/48/31 32/49/31 30/50/31 28/51/31 26/52/31 24/53/31 22/54/31 20/55/31 18/56/31 16/57/31 14/58/31 12/59/31 10/60/31 8/61/31 6/62/31
f 63/16/32 64/15/32 2/17/32 1/18/32
f 61/14/33 62/13/33 64/15/33 63/16/33
f 1/63/34 3/64/34 5/65/34 7/66/34 9/67/34 11/68/34 13/69/34 15/70/34 17/71/34 19/72/34 21/73/34 23/74/34 25/75/34 27/76/34 29/77/34 31/78/34 33/79/34 35/80/34 37/81/34 39/82/34 41/83/34 43/84/34 45/85/34 47/86/34 49/87/34 51/88/34 53/89/34 55/90/34 57/91/34 59/92/34 61/93/34 63/94/34
