# Blender v2.72 (sub 0) OBJ File: ''
# www.blender.org
o Cylinder
v 0.000000 -0.046020 -1.000000
v 0.000000 0.046020 -1.000000
v 0.195090 0.046020 -0.980785
v 0.195090 -0.046020 -0.980785
v 0.382683 0.046020 -0.923880
v 0.382683 -0.046020 -0.923880
v 0.555570 0.046020 -0.831470
v 0.555570 -0.046020 -0.831470
v 0.707107 0.046020 -0.707107
v 0.707107 -0.046020 -0.707107
v 0.831470 0.046020 -0.555570
v 0.831470 -0.046020 -0.555570
v 0.923880 0.046020 -0.382683
v 0.923880 -0.046020 -0.382683
v 0.980785 0.046020 -0.195090
v 0.980785 -0.046020 -0.195090
v 1.000000 0.046020 0.000000
v 1.000000 -0.046020 -0.000000
v 0.980785 0.046020 0.195090
v 0.980785 -0.046020 0.195090
v 0.923880 0.046020 0.382683
v 0.923880 -0.046020 0.382683
v 0.831470 0.046020 0.555570
v 0.831470 -0.046020 0.555570
v 0.707107 0.046020 0.707107
v 0.707107 -0.046020 0.707107
v 0.555570 0.046020 0.831470
v 0.555570 -0.046020 0.831470
v 0.382683 0.046020 0.923880
v 0.382683 -0.046020 0.923880
v 0.195090 0.046020 0.980785
v 0.195090 -0.046020 0.980785
v 0.000000 0.046020 1.000000
v 0.000000 -0.046020 1.000000
v -0.195091 0.046020 0.980785
v -0.195091 -0.046020 0.980785
v -0.382684 0.046020 0.923879
v -0.382684 -0.046020 0.923879
v -0.555571 0.046020 0.831469
v -0.555571 -0.046020 0.831469
v -0.707107 0.046020 0.707106
v -0.707107 -0.046020 0.707106
v -0.831470 0.046020 0.555570
v -0.831470 -0.046020 0.555570
v -0.923880 0.046020 0.382683
v -0.923880 -0.046020 0.382683
v -0.980785 0.046020 0.195089
v -0.980785 -0.046020 0.195089
v -1.000000 0.046020 -0.000001
v -1.000000 -0.046020 -0.000001
v -0.980785 0.046020 -0.195091
v -0.980785 -0.046020 -0.195091
v -0.923879 0.046020 -0.382684
v -0.923879 -0.046020 -0.382684
v -0.831469 0.046020 -0.555571
v -0.831469 -0.046020 -0.555571
v -0.707106 0.046020 -0.707108
v -0.707106 -0.046020 -0.707108
v -0.555569 0.046020 -0.831470
v -0.555569 -0.046020 -0.831470
v -0.382682 0.046020 -0.923880
v -0.382682 -0.046020 -0.923880
v -0.195089 0.046020 -0.980786
v -0.195089 -0.046020 -0.980786
vt 0.555950 0.206857
vt 0.555950 0.291929
vt 0.518881 0.291929
vt 0.518880 0.206857
vt 0.481812 0.291929
vt 0.481811 0.206857
vt 0.444743 0.291929
vt 0.444742 0.206857
vt 0.407674 0.291929
vt 0.407673 0.206857
vt 0.370605 0.291929
vt 0.370603 0.206857
vt 0.333536 0.291929
vt 0.333534 0.206857
vt 0.296467 0.291930
vt 0.296465 0.206857
vt 0.259398 0.291930
vt 0.259396 0.206857
vt 0.222328 0.291930
vt 0.222326 0.206857
vt 0.185259 0.291930
vt 0.779578 0.205824
vt 0.779447 0.291220
vt 0.742242 0.291217
vt 0.742373 0.205821
vt 0.705038 0.291214
vt 0.705169 0.205818
vt 0.667834 0.291211
vt 0.667964 0.205815
vt 0.630629 0.291209
vt 0.630760 0.205812
vt 0.593425 0.291206
vt 0.593555 0.205809
vt 0.556220 0.291203
vt 0.556351 0.205806
vt 0.519016 0.291200
vt 0.519146 0.205804
vt 0.481812 0.291197
vt 0.481942 0.205801
vt 0.444607 0.291194
vt 0.444737 0.205798
vt 0.407403 0.291191
vt 0.407533 0.205795
vt 0.370198 0.291189
vt 0.370328 0.205792
vt 0.332994 0.291186
vt 0.333123 0.205789
vt 0.295790 0.291183
vt 0.295919 0.205786
vt 0.258585 0.291180
vt 0.258714 0.205784
vt 0.221381 0.291177
vt 0.221510 0.205781
vt 0.184176 0.291174
vt 0.778365 0.206857
vt 0.778365 0.291929
vt 0.741295 0.291929
vt 0.741295 0.206857
vt 0.704226 0.291929
vt 0.704226 0.206857
vt 0.667157 0.291929
vt 0.667157 0.206857
vt 0.630088 0.291929
vt 0.593018 0.206857
vt 0.630088 0.206857
vt 0.593019 0.291929
vt 0.853236 0.979522
vt 0.937578 0.923167
vt 0.913359 0.947386
vt 0.912167 0.671696
vt 0.781544 0.987047
vt 0.714953 0.652273
vt 0.185257 0.206857
vt 0.184305 0.205778
vt 0.691675 0.947385
vt 0.648427 0.894687
vt 0.720154 0.966414
vt 0.819643 0.986204
vt 0.785392 0.986204
vt 0.751799 0.979522
vt 0.884880 0.966414
vt 0.969715 0.863043
vt 0.956608 0.894688
vt 0.976397 0.795199
vt 0.976397 0.829450
vt 0.956608 0.729961
vt 0.969715 0.761605
vt 0.913359 0.677263
vt 0.937578 0.701482
vt 0.853236 0.645126
vt 0.884880 0.658234
vt 0.785392 0.638444
vt 0.819643 0.638444
vt 0.720155 0.658234
vt 0.751799 0.645126
vt 0.667456 0.701482
vt 0.691676 0.677263
vt 0.648427 0.729961
vt 0.635320 0.863043
vt 0.628638 0.829450
vt 0.667456 0.923166
vt 0.628638 0.795198
vt 0.816506 0.632073
vt 0.850796 0.638893
vt 0.781544 0.632073
vt 0.635320 0.761605
vt 0.641738 0.725489
vt 0.661162 0.696419
vt 0.685883 0.671697
vt 0.628358 0.757789
vt 0.621538 0.792079
vt 0.621538 0.827041
vt 0.628358 0.861331
vt 0.685883 0.947423
vt 0.641738 0.893631
vt 0.714952 0.966846
vt 0.747253 0.980226
vt 0.850796 0.980226
vt 0.816505 0.987047
vt 0.936889 0.922701
vt 0.883097 0.966847
vt 0.956313 0.893631
vt 0.969692 0.861331
vt 0.976513 0.827041
vt 0.976513 0.792079
vt 0.956313 0.725488
vt 0.883097 0.652272
vt 0.661161 0.922701
vt 0.747254 0.638894
vt 0.912167 0.947423
vt 0.936889 0.696418
vt 0.969692 0.757788
vn 0.098000 0.000000 -0.995200
vn 0.290300 0.000000 -0.956900
vn 0.471400 0.000000 -0.881900
vn 0.634400 0.000000 -0.773000
vn 0.773000 0.000000 -0.634400
vn 0.881900 0.000000 -0.471400
vn 0.956900 0.000000 -0.290300
vn 0.995200 0.000000 -0.098000
vn 0.995200 0.000000 0.098000
vn 0.956900 -0.000000 0.290300
vn 0.881900 0.000000 0.471400
vn 0.773000 0.000000 0.634400
vn 0.634400 0.000000 0.773000
vn 0.471400 0.000000 0.881900
vn 0.290300 0.000000 0.956900
vn 0.098000 0.000000 0.995200
vn -0.098000 0.000000 0.995200
vn -0.290300 0.000000 0.956900
vn -0.471400 0.000000 0.881900
vn -0.634400 0.000000 0.773000
vn -0.773000 0.000000 0.634400
vn -0.881900 0.000000 0.471400
vn -0.956900 0.000000 0.290300
vn -0.995200 0.000000 0.098000
vn -0.995200 0.000000 -0.098000
vn -0.956900 0.000000 -0.290300
vn -0.881900 0.000000 -0.471400
vn -0.773000 0.000000 -0.634400
vn -0.634400 0.000000 -0.773000
vn -0.471400 0.000000 -0.881900
vn -0.098000 0.000000 -0.995200
vn -0.290300 0.000000 -0.956900
vn -0.000000 1.000000 0.000000
vn 0.000000 -1.000000 -0.000000
s off
f 1/1/1 2/2/1 3/3/1
f 4/4/2 3/3/2 5/5/2
f 6/6/3 5/5/3 7/7/3
f 8/8/4 7/7/4 9/9/4
f 10/10/5 9/9/5 11/11/5
f 12/12/6 11/11/6 13/13/6
f 14/14/7 13/13/7 15/15/7
f 16/16/8 15/15/8 17/17/8
f 18/18/9 17/17/9 19/19/9
f 20/20/10 19/19/10 21/21/10
f 22/22/11 21/23/11 23/24/11
f 24/25/12 23/24/12 25/26/12
f 26/27/13 25/26/13 27/28/13
f 28/29/14 27/28/14 29/30/14
f 30/31/15 29/30/15 31/32/15
f 32/33/16 31/32/16 33/34/16
f 34/35/17 33/34/17 35/36/17
f 36/37/18 35/36/18 37/38/18
f 38/39/19 37/38/19 39/40/19
f 40/41/20 39/40/20 41/42/20
f 42/43/21 41/42/21 43/44/21
f 44/45/22 43/44/22 45/46/22
f 46/47/23 45/46/23 47/48/23
f 48/49/24 47/48/24 49/50/24
f 50/51/25 49/50/25 51/52/25
f 52/53/26 51/52/26 53/54/26
f 54/55/27 53/56/27 55/57/27
f 56/58/28 55/57/28 57/59/28
f 58/60/29 57/59/29 59/61/29
f 60/62/30 59/61/30 61/63/30
f 2/2/31 1/1/31 64/64/31
f 62/65/32 61/63/32 63/66/32
f 61/67/33 3/68/33 2/69/33
f 16/70/34 42/71/34 4/72/34
f 4/4/1 1/1/1 3/3/1
f 6/6/2 4/4/2 5/5/2
f 8/8/3 6/6/3 7/7/3
f 10/10/4 8/8/4 9/9/4
f 12/12/5 10/10/5 11/11/5
f 14/14/6 12/12/6 13/13/6
f 16/16/7 14/14/7 15/15/7
f 18/18/8 16/16/8 17/17/8
f 20/20/9 18/18/9 19/19/9
f 22/73/10 20/20/10 21/21/10
f 24/25/11 22/22/11 23/24/11
f 26/27/12 24/25/12 25/26/12
f 28/29/13 26/27/13 27/28/13
f 30/31/14 28/29/14 29/30/14
f 32/33/15 30/31/15 31/32/15
f 34/35/16 32/33/16 33/34/16
f 36/37/17 34/35/17 35/36/17
f 38/39/18 36/37/18 37/38/18
f 40/41/19 38/39/19 39/40/19
f 42/43/20 40/41/20 41/42/20
f 44/45/21 42/43/21 43/44/21
f 46/47/22 44/45/22 45/46/22
f 48/49/23 46/47/23 47/48/23
f 50/51/24 48/49/24 49/50/24
f 52/53/25 50/51/25 51/52/25
f 54/74/26 52/53/26 53/54/26
f 56/58/27 54/55/27 55/57/27
f 58/60/28 56/58/28 57/59/28
f 60/62/29 58/60/29 59/61/29
f 62/65/30 60/62/30 61/63/30
f 63/66/31 2/2/31 64/64/31
f 64/64/32 62/65/32 63/66/32
f 51/75/33 47/76/33 53/77/33
f 59/78/33 57/79/33 55/80/33
f 59/78/33 3/68/33 61/67/33
f 63/81/33 61/67/33 2/69/33
f 7/82/33 5/83/33 3/68/33
f 11/84/33 9/85/33 7/82/33
f 15/86/33 13/87/33 11/84/33
f 19/88/33 17/89/33 15/86/33
f 23/90/33 21/91/33 19/88/33
f 27/92/33 25/93/33 23/90/33
f 31/94/33 29/95/33 27/92/33
f 35/96/33 33/97/33 31/94/33
f 35/96/33 31/94/33 37/98/33
f 59/78/33 55/80/33 53/77/33
f 47/76/33 45/99/33 43/100/33
f 51/75/33 49/101/33 47/76/33
f 47/76/33 15/86/33 59/78/33
f 31/94/33 47/76/33 41/102/33
f 11/84/33 7/82/33 3/68/33
f 11/84/33 3/68/33 15/86/33
f 27/92/33 23/90/33 19/88/33
f 27/92/33 19/88/33 31/94/33
f 10/103/34 12/104/34 8/105/34
f 43/100/33 41/102/33 47/76/33
f 47/76/33 19/88/33 15/86/33
f 15/86/33 3/68/33 59/78/33
f 31/94/33 19/88/33 47/76/33
f 31/94/33 41/102/33 37/98/33
f 47/76/33 59/78/33 53/77/33
f 41/102/33 39/106/33 37/98/33
f 16/70/34 4/72/34 12/104/34
f 62/107/34 64/108/34 1/109/34
f 62/107/34 4/72/34 60/110/34
f 58/111/34 60/110/34 56/112/34
f 54/113/34 48/114/34 52/115/34
f 48/114/34 54/113/34 60/110/34
f 46/116/34 48/114/34 44/117/34
f 38/118/34 40/119/34 42/71/34
f 38/118/34 32/120/34 36/121/34
f 12/104/34 4/72/34 8/105/34
f 30/122/34 32/120/34 28/123/34
f 26/124/34 28/123/34 24/125/34
f 28/123/34 20/126/34 24/125/34
f 16/70/34 20/126/34 32/120/34
f 14/127/34 16/70/34 12/104/34
f 60/110/34 54/113/34 56/112/34
f 1/109/34 4/72/34 62/107/34
f 28/123/34 32/120/34 20/126/34
f 60/110/34 4/72/34 48/114/34
f 42/71/34 32/120/34 38/118/34
f 48/114/34 50/128/34 52/115/34
f 16/70/34 32/120/34 42/71/34
f 48/114/34 42/71/34 44/117/34
f 4/72/34 6/129/34 8/105/34
f 32/120/34 34/130/34 36/121/34
f 16/70/34 18/131/34 20/126/34
f 20/126/34 22/132/34 24/125/34
f 4/72/34 42/71/34 48/114/34
