# Blender v2.72 (sub 0) OBJ File: ''
# www.blender.org
o Landscape
v 0.000000 -0.977690 -0.000000
v 0.480496 -0.960992 -0.277414
v 0.413527 -0.827054 0.238750
v 0.000000 -1.180642 0.681644
v -0.516378 -1.032756 0.298131
v -0.611327 -1.222654 -0.352950
v -0.000000 -0.913867 -0.527621
v 0.000000 -0.477500 -0.827054
v 0.827040 -0.551360 -0.477492
v 0.716250 -0.477500 0.413527
v 0.000000 -0.477500 0.827054
v -0.742106 -0.494737 0.428455
v -0.727883 -0.485255 -0.420243
v 0.000000 0.000000 -1.123329
v 0.901960 0.000000 -0.520747
v 1.075351 0.000000 0.620854
v 0.000000 0.000000 0.997101
v -0.827054 0.000000 0.477500
v -0.900743 0.000000 -0.520044
v 0.000000 0.569789 -0.986903
v 0.817201 0.544801 -0.471812
v 0.840371 0.560247 0.485188
v 0.000000 0.510035 0.883407
v -1.136250 0.757500 0.656014
v -0.954802 0.636535 -0.551255
v 0.428465 0.856931 -0.247375
v 0.512528 1.025057 0.295908
v 0.000000 0.827054 0.477500
v -0.548325 1.096650 0.316575
v -0.413527 0.827054 -0.238750
v -0.000000 1.260793 -0.727919
v -0.000000 1.146819 -0.000000
vt 0.253688 0.758306
vt 0.172789 0.704591
vt 0.168745 0.598617
vt 0.352255 0.695592
vt 0.104815 0.765377
vt 0.000103 0.702313
vt 0.097801 0.837702
vt 0.000103 0.889533
vt 0.163454 0.870367
vt 0.158227 0.999897
vt 0.106207 0.000103
vt 0.493354 0.000103
vt 0.406209 0.162820
vt 0.236362 0.184921
vt 0.717859 0.326101
vt 0.472213 0.314273
vt 0.483163 0.598410
vt 0.402834 0.451299
vt 0.166698 0.588409
vt 0.234075 0.467330
vt 0.000103 0.328896
vt 0.165129 0.323104
vt 0.362638 0.240605
vt 0.276432 0.244959
vt 0.404300 0.313185
vt 0.360906 0.387773
vt 0.284958 0.372183
vt 0.245032 0.322235
vt 0.357046 0.312801
vt 0.342078 0.278634
vt 0.342634 0.347135
vt 0.302999 0.343986
vt 0.285219 0.313253
vt 0.175251 0.793134
vt 0.241525 0.847202
vt 0.337826 0.906245
vt 0.305129 0.286228
vt 0.321582 0.313189
vn -0.436800 0.875800 0.205100
vn -0.620300 0.722300 -0.305800
vn -0.731300 0.506600 -0.456600
vn -0.723700 0.538900 0.431000
vn -0.090200 0.831600 -0.548000
vn 0.013300 0.394700 -0.918700
vn 0.585600 0.724500 -0.363400
vn 0.823400 0.284400 -0.490900
vn 0.453700 0.829600 0.325300
vn 0.808800 0.366300 0.460100
vn 0.013900 0.432600 0.901500
vn -0.849900 0.074400 0.521600
vn -0.007600 0.127000 0.991900
vn -0.851800 0.065900 -0.519600
vn 0.031900 0.149400 -0.988300
vn 0.817200 0.253200 -0.517700
vn 0.840800 0.237900 0.486300
vn -0.789000 -0.412900 0.455000
vn -0.046400 -0.418900 0.906800
vn -0.714800 -0.540000 -0.444300
vn -0.047900 -0.363500 -0.930400
vn 0.739000 -0.446200 -0.504700
vn 0.791100 -0.327700 0.516400
vn -0.408500 -0.870800 -0.273600
vn -0.646600 -0.711700 0.274700
vn -0.106700 -0.740500 -0.663500
vn 0.165000 -0.968900 -0.184100
vn 0.500600 -0.802200 0.325300
vn -0.220300 0.974100 0.049900
vn -0.075500 0.737700 0.670900
vn -0.039300 -0.913000 0.406000
vn -0.015100 -0.993700 -0.110700
s 1
f 2/1/1 3/2/2 10/3/3 9/4/4
f 3/2/2 4/5/5 11/6/6 10/3/3
f 4/5/5 5/7/7 12/8/8 11/6/6
f 5/7/7 6/9/9 13/10/10 12/8/8
f 8/11/11 9/12/4 15/13/12 14/14/13
f 9/12/4 10/15/3 16/16/14 15/13/12
f 10/15/3 11/17/6 17/18/15 16/16/14
f 11/17/6 12/19/8 18/20/16 17/18/15
f 12/19/8 13/21/10 19/22/17 18/20/16
f 14/14/13 15/13/12 21/23/18 20/24/19
f 15/13/12 16/16/14 22/25/20 21/23/18
f 16/16/14 17/18/15 23/26/21 22/25/20
f 17/18/15 18/20/16 24/27/22 23/26/21
f 18/20/16 19/22/17 25/28/23 24/27/22
f 21/23/18 22/25/20 27/29/24 26/30/25
f 22/25/20 23/26/21 28/31/26 27/29/24
f 23/26/21 24/27/22 29/32/27 28/31/26
f 24/27/22 25/28/23 30/33/28 29/32/27
f 1/34/29 2/1/1 7/35/30
f 1/34/29 3/2/2 2/1/1
f 1/34/29 4/5/5 3/2/2
f 1/34/29 5/7/7 4/5/5
f 1/34/29 6/9/9 5/7/7
f 1/34/29 7/35/30 6/9/9
f 7/35/30 2/1/1 9/4/4 8/36/11
f 6/9/9 7/35/30 8/36/11 13/10/10
f 13/21/10 8/11/11 14/14/13 19/22/17
f 19/22/17 14/14/13 20/24/19 25/28/23
f 20/24/19 21/23/18 26/30/25 31/37/31
f 25/28/23 20/24/19 31/37/31 30/33/28
f 31/37/31 26/30/25 32/38/32
f 26/30/25 27/29/24 32/38/32
f 27/29/24 28/31/26 32/38/32
f 28/31/26 29/32/27 32/38/32
f 29/32/27 30/33/28 32/38/32
f 30/33/28 31/37/31 32/38/32
