# Blender v2.71 (sub 0) OBJ File: 'Coin fewer triangles.blend'
# www.blender.org
o Cylinder
v 0.000000 -0.200000 -1.000000
v 0.000000 0.200000 -1.000000
v 0.195090 -0.200000 -0.980785
v 0.195090 0.200000 -0.980785
v 0.382683 -0.200000 -0.923880
v 0.382683 0.200000 -0.923880
v 0.555570 -0.200000 -0.831470
v 0.555570 0.200000 -0.831470
v 0.707107 -0.200000 -0.707107
v 0.707107 0.200000 -0.707107
v 0.831470 -0.200000 -0.555570
v 0.831470 0.200000 -0.555570
v 0.923880 -0.200000 -0.382683
v 0.923880 0.200000 -0.382683
v 0.980785 -0.200000 -0.195090
v 0.980785 0.200000 -0.195090
v 1.000000 -0.200000 -0.000000
v 1.000000 0.200000 -0.000000
v 0.980785 -0.200000 0.195090
v 0.980785 0.200000 0.195090
v 0.923880 -0.200000 0.382683
v 0.923880 0.200000 0.382683
v 0.831470 -0.200000 0.555570
v 0.831470 0.200000 0.555570
v 0.707107 -0.200000 0.707107
v 0.707107 0.200000 0.707107
v 0.555570 -0.200000 0.831470
v 0.555570 0.200000 0.831470
v 0.382683 -0.200000 0.923880
v 0.382683 0.200000 0.923880
v 0.195090 -0.200000 0.980785
v 0.195090 0.200000 0.980785
v -0.000000 -0.200000 1.000000
v -0.000000 0.200000 1.000000
v -0.195091 -0.200000 0.980785
v -0.195091 0.200000 0.980785
v -0.382684 -0.200000 0.923879
v -0.382684 0.200000 0.923879
v -0.562935 -0.207452 0.840700
v -0.555571 0.200000 0.831469
v -0.708470 -0.201356 0.708767
v -0.707107 0.200000 0.707106
v -0.831470 -0.200000 0.555570
v -0.831470 0.200000 0.555570
v -0.923880 -0.200000 0.382683
v -0.923880 0.200000 0.382683
v -0.980785 -0.200000 0.195089
v -0.980785 0.200000 0.195089
v -1.000000 -0.200000 -0.000001
v -1.000000 0.200000 -0.000001
v -0.980785 -0.200000 -0.195091
v -0.980785 0.200000 -0.195091
v -0.923879 -0.200000 -0.382684
v -0.923879 0.200000 -0.382684
v -0.831469 -0.200000 -0.555571
v -0.831469 0.200000 -0.555571
v -0.707106 -0.200000 -0.707108
v -0.707106 0.200000 -0.707108
v -0.555569 -0.200000 -0.831470
v -0.555569 0.200000 -0.831470
v -0.382682 -0.200000 -0.923880
v -0.382682 0.200000 -0.923880
v -0.195089 -0.200000 -0.980786
v -0.195089 0.200000 -0.980786
vt 0.496211 0.494137
vt 0.496211 0.990665
vt 0.464005 0.990665
vt 0.464005 0.494137
vt 0.429815 0.990665
vt 0.429815 0.494137
vt 0.394955 0.990665
vt 0.394955 0.494137
vt 0.360764 0.990665
vt 0.360764 0.494137
vt 0.328558 0.990665
vt 0.328558 0.494137
vt 0.299573 0.990665
vt 0.299573 0.494137
vt 0.274923 0.990665
vt 0.274923 0.494137
vt 0.250273 0.990665
vt 0.250273 0.494137
vt 0.221288 0.990665
vt 0.221288 0.494137
vt 0.189082 0.990665
vt 0.189082 0.494137
vt 0.154892 0.990665
vt 0.154892 0.494137
vt 0.120032 0.990665
vt 0.120032 0.494137
vt 0.085841 0.990665
vt 0.085841 0.494137
vt 0.053635 0.990665
vt 0.053635 0.494137
vt 0.024650 0.990665
vt 0.024650 0.494137
vt 0.000000 0.990665
vt 0.000000 0.494137
vt 0.774376 0.503472
vt 0.774376 1.000000
vt 0.747436 0.999963
vt 0.747436 0.503435
vt 0.716698 0.999935
vt 0.716697 0.503407
vt 0.683342 0.999918
vt 0.683577 0.494137
vt 0.648651 0.999912
vt 0.648688 0.501701
vt 0.613957 0.999918
vt 0.613957 0.503390
vt 0.580595 0.999935
vt 0.580595 0.503407
vt 0.549846 0.999963
vt 0.549846 0.503435
vt 1.000000 0.494137
vt 1.000000 0.990665
vt 0.971015 0.990665
vt 0.971015 0.494137
vt 0.938808 0.990665
vt 0.938808 0.494137
vt 0.904618 0.990665
vt 0.904618 0.494137
vt 0.869758 0.990665
vt 0.869758 0.494137
vt 0.835568 0.990665
vt 0.835568 0.494137
vt 0.803361 0.990665
vt 0.803361 0.494137
vt 0.774376 0.990665
vt 0.774376 0.494137
vt 0.159540 0.494137
vt 0.125350 0.484642
vt 0.093143 0.466018
vt 0.064158 0.438979
vt 0.039509 0.404566
vt 0.020141 0.364100
vt 0.006801 0.319136
vt 0.000000 0.271403
vt 0.000000 0.222735
vt 0.006801 0.175002
vt 0.020141 0.130038
vt 0.039508 0.089572
vt 0.064158 0.055158
vt 0.093143 0.028119
vt 0.125350 0.009495
vt 0.159540 0.000000
vt 0.194400 0.000000
vt 0.228590 0.009495
vt 0.260797 0.028119
vt 0.289782 0.055158
vt 0.314432 0.089572
vt 0.333799 0.130038
vt 0.347139 0.175001
vt 0.353940 0.222734
vt 0.353940 0.271403
vt 0.347139 0.319136
vt 0.333799 0.364099
vt 0.314432 0.404566
vt 0.289782 0.438979
vt 0.260797 0.466018
vt 0.228590 0.484642
vt 0.194400 0.494137
vt 0.525196 0.494137
vt 0.525196 0.990665
vt 0.549846 0.494137
vt 0.549846 0.990665
vt 0.707879 0.222733
vt 0.707879 0.271402
vt 0.701078 0.319135
vt 0.687738 0.364098
vt 0.668371 0.404565
vt 0.643721 0.438978
vt 0.614736 0.466017
vt 0.582530 0.484642
vt 0.548339 0.494137
vt 0.513480 0.494137
vt 0.479289 0.484642
vt 0.447083 0.466018
vt 0.418098 0.438979
vt 0.393448 0.404566
vt 0.374081 0.364100
vt 0.360741 0.319136
vt 0.360741 0.175002
vt 0.372303 0.128431
vt 0.393128 0.089273
vt 0.418098 0.055158
vt 0.447083 0.028120
vt 0.479289 0.009495
vt 0.513480 0.000000
vt 0.548340 0.000000
vt 0.582530 0.009495
vt 0.614736 0.028119
vt 0.643721 0.055158
vt 0.668371 0.089571
vt 0.687738 0.130037
vt 0.701078 0.175001
vn 0.098000 0.000000 -0.995200
vn 0.290300 0.000000 -0.956900
vn 0.471400 0.000000 -0.881900
vn 0.634400 0.000000 -0.773000
vn 0.773000 0.000000 -0.634400
vn 0.881900 0.000000 -0.471400
vn 0.956900 0.000000 -0.290300
vn 0.995200 0.000000 -0.098000
vn 0.995200 0.000000 0.098000
vn 0.956900 0.000000 0.290300
vn 0.881900 0.000000 0.471400
vn 0.773000 0.000000 0.634400
vn 0.634400 0.000000 0.773000
vn 0.471400 0.000000 0.881900
vn 0.290300 0.000000 0.956900
vn 0.098000 0.000000 0.995200
vn -0.098000 0.000000 0.995200
vn -0.290300 0.000000 0.956900
vn -0.445400 0.014300 0.895200
vn -0.652900 0.017200 0.757200
vn -0.776400 0.002600 0.630200
vn -0.881900 0.000000 0.471400
vn -0.956900 0.000000 0.290300
vn -0.995200 0.000000 0.098000
vn -0.995200 0.000000 -0.098000
vn -0.956900 0.000000 -0.290300
vn -0.881900 0.000000 -0.471400
vn -0.773000 0.000000 -0.634400
vn -0.634400 0.000000 -0.773000
vn -0.471400 0.000000 -0.881900
vn 0.000000 1.000000 -0.000000
vn -0.098000 0.000000 -0.995200
vn -0.290300 0.000000 -0.956900
vn 0.000300 -1.000000 -0.000400
s off
f 1/1/1 2/2/1 4/3/1 3/4/1
f 3/4/2 4/3/2 6/5/2 5/6/2
f 5/6/3 6/5/3 8/7/3 7/8/3
f 7/8/4 8/7/4 10/9/4 9/10/4
f 9/10/5 10/9/5 12/11/5 11/12/5
f 11/12/6 12/11/6 14/13/6 13/14/6
f 13/14/7 14/13/7 16/15/7 15/16/7
f 15/16/8 16/15/8 18/17/8 17/18/8
f 17/18/9 18/17/9 20/19/9 19/20/9
f 19/20/10 20/19/10 22/21/10 21/22/10
f 21/22/11 22/21/11 24/23/11 23/24/11
f 23/24/12 24/23/12 26/25/12 25/26/12
f 25/26/13 26/25/13 28/27/13 27/28/13
f 27/28/14 28/27/14 30/29/14 29/30/14
f 29/30/15 30/29/15 32/31/15 31/32/15
f 31/32/16 32/31/16 34/33/16 33/34/16
f 33/35/17 34/36/17 36/37/17 35/38/17
f 35/38/18 36/37/18 38/39/18 37/40/18
f 37/40/19 38/39/19 40/41/19 39/42/19
f 39/42/20 40/41/20 42/43/20 41/44/20
f 41/44/21 42/43/21 44/45/21 43/46/21
f 43/46/22 44/45/22 46/47/22 45/48/22
f 45/48/23 46/47/23 48/49/23 47/50/23
f 47/51/24 48/52/24 50/53/24 49/54/24
f 49/54/25 50/53/25 52/55/25 51/56/25
f 51/56/26 52/55/26 54/57/26 53/58/26
f 53/58/27 54/57/27 56/59/27 55/60/27
f 55/60/28 56/59/28 58/61/28 57/62/28
f 57/62/29 58/61/29 60/63/29 59/64/29
f 59/64/30 60/63/30 62/65/30 61/66/30
f 4/67/31 2/68/31 64/69/31 62/70/31 60/71/31 58/72/31 56/73/31 54/74/31 52/75/31 50/76/31 48/77/31 46/78/31 44/79/31 42/80/31 40/81/31 38/82/31 36/83/31 34/84/31 32/85/31 30/86/31 28/87/31 26/88/31 24/89/31 22/90/31 20/91/31 18/92/31 16/93/31 14/94/31 12/95/31 10/96/31 8/97/31 6/98/31
f 63/99/32 64/100/32 2/2/32 1/1/32
f 61/101/33 62/102/33 64/100/33 63/99/33
f 1/103/34 3/104/34 5/105/34 7/106/34 9/107/34 11/108/34 13/109/34 15/110/34 17/111/34 19/112/34 21/113/34 23/114/34 25/115/34 27/116/34 29/117/34 31/118/34 33/91/34 35/90/34 37/119/34 39/120/34 41/121/34 43/122/34 45/123/34 47/124/34 49/125/34 51/126/34 53/127/34 55/128/34 57/129/34 59/130/34 61/131/34 63/132/34
