# Blender v2.71 (sub 0) OBJ File: 'WIP Dude Frame - unjoined.blend'
# www.blender.org
o Left_Lower_Arm_Sphere.029
v 0.230012 6.788766 -3.345473
v 0.214519 5.783082 -2.694939
v 0.225911 6.800234 -3.327943
v 0.209212 5.797924 -2.672254
v 0.224763 6.811963 -3.310146
v 0.207727 5.813102 -2.649221
v 0.226593 6.823724 -3.292427
v 0.210096 5.828321 -2.626291
v 0.231364 6.835287 -3.275130
v 0.216270 5.843286 -2.603907
v 0.238984 6.846428 -3.258594
v 0.226130 5.857703 -2.582507
v 0.249303 6.856929 -3.243139
v 0.239485 5.871293 -2.562507
v 0.262122 6.866588 -3.229066
v 0.256073 5.883792 -2.544295
v 0.277189 6.875214 -3.216650
v 0.275573 5.894956 -2.528227
v 0.294214 6.882641 -3.206132
v 0.297605 5.904567 -2.514615
v 0.312863 6.888724 -3.197716
v 0.321740 5.912439 -2.503724
v 0.332775 6.893345 -3.191567
v 0.347507 5.918419 -2.495767
v 0.353561 6.896413 -3.187804
v 0.374407 5.922390 -2.490897
v 0.374817 6.897870 -3.186501
v 0.401914 5.924274 -2.489210
v 0.396129 6.897686 -3.187682
v 0.429494 5.924037 -2.490739
v 0.417082 6.895864 -3.191325
v 0.456611 5.921680 -2.495454
v 0.437269 6.892443 -3.197360
v 0.482735 5.917252 -2.503263
v 0.456296 6.887486 -3.205667
v 0.507358 5.910836 -2.514013
v 0.473794 6.881090 -3.216086
v 0.530002 5.902560 -2.527497
v 0.489421 6.873381 -3.228414
v 0.550226 5.892584 -2.543451
v 0.502874 6.864508 -3.242412
v 0.567636 5.881101 -2.561565
v 0.513891 6.854644 -3.257805
v 0.581892 5.868336 -2.581487
v 0.522257 6.843981 -3.274296
v 0.592718 5.854536 -2.602828
v 0.527809 6.832726 -3.291562
v 0.599904 5.839972 -2.625173
v 0.530439 6.821099 -3.309269
v 0.603308 5.824924 -2.648087
v 0.530097 6.809326 -3.327071
v 0.602865 5.809689 -2.671124
v 0.526788 6.797636 -3.344622
v 0.598583 5.794560 -2.693838
v 0.520578 6.786256 -3.361579
v 0.590546 5.779834 -2.715783
v 0.511587 6.775408 -3.377614
v 0.578911 5.765796 -2.736534
v 0.499990 6.765304 -3.392414
v 0.563903 5.752719 -2.755686
v 0.486012 6.756139 -3.405691
v 0.545814 5.740859 -2.772868
v 0.469927 6.748093 -3.417187
v 0.524998 5.730446 -2.787744
v 0.452046 6.741322 -3.426676
v 0.501858 5.721683 -2.800025
v 0.432719 6.735956 -3.433976
v 0.476846 5.714740 -2.809472
v 0.412320 6.732101 -3.438944
v 0.450448 5.709752 -2.815902
v 0.391248 6.729834 -3.441483
v 0.423178 5.706818 -2.819187
v 0.369912 6.729197 -3.441545
v 0.395567 5.705992 -2.819267
v 0.348728 6.730201 -3.439126
v 0.368152 5.707293 -2.816138
v 0.328107 6.732829 -3.434276
v 0.341467 5.710693 -2.809860
v 0.308452 6.737029 -3.427088
v 0.316031 5.716129 -2.800558
v 0.290145 6.742720 -3.417702
v 0.292339 5.723493 -2.788411
v 0.273542 6.749789 -3.406300
v 0.270853 5.732641 -2.773656
v 0.258967 6.758101 -3.393105
v 0.251990 5.743397 -2.756580
v 0.246702 6.767491 -3.378373
v 0.236119 5.755551 -2.737516
v 0.236988 6.777780 -3.362392
v 0.223547 5.768866 -2.716835
vt 0.921613 0.894463
vt 0.919452 0.801390
vt 0.920791 0.800654
vt 0.922181 0.799857
vt 0.923721 0.893279
vt 0.923596 0.799015
vt 0.924815 0.892628
vt 0.925009 0.798143
vt 0.925906 0.891954
vt 0.926391 0.797259
vt 0.926975 0.891270
vt 0.927716 0.796379
vt 0.927999 0.890591
vt 0.928959 0.795522
vt 0.538820 0.809530
vt 0.535522 0.725588
vt 0.537122 0.724530
vt 0.540056 0.808712
vt 0.538957 0.723615
vt 0.541475 0.808005
vt 0.540992 0.722861
vt 0.543047 0.807422
vt 0.543188 0.722282
vt 0.545502 0.721891
vt 0.546532 0.806673
vt 0.547888 0.721694
vt 0.550300 0.721696
vt 0.550240 0.806522
vt 0.552692 0.721896
vt 0.555016 0.722290
vt 0.553884 0.806981
vt 0.557228 0.722871
vt 0.555593 0.807430
vt 0.559284 0.723628
vt 0.561145 0.724546
vt 0.558619 0.808724
vt 0.562773 0.725606
vt 0.876127 0.536824
vt 0.874332 0.536079
vt 0.874740 0.468657
vt 0.872633 0.535485
vt 0.873427 0.468198
vt 0.871063 0.535054
vt 0.872214 0.467865
vt 0.984128 0.711026
vt 0.982954 0.710799
vt 0.983221 0.629023
vt 0.981656 0.710389
vt 0.980261 0.709804
vt 0.981140 0.628254
vt 0.978795 0.709055
vt 0.977287 0.708156
vt 0.978842 0.626980
vt 0.975766 0.707126
vt 0.977666 0.626184
vt 0.974261 0.705984
vt 0.976504 0.625302
vt 0.899662 0.191372
vt 0.901439 0.192214
vt 0.910986 0.273823
vt 0.903424 0.192890
vt 0.912520 0.274345
vt 0.905579 0.193388
vt 0.914186 0.274730
vt 0.907863 0.193697
vt 0.910231 0.193811
vt 0.917780 0.275057
vt 0.912636 0.193729
vt 0.915032 0.193451
vt 0.921490 0.274779
vt 0.917373 0.192984
vt 0.919612 0.192336
vt 0.925029 0.273917
vt 0.921706 0.191520
vt 0.923615 0.190551
vt 0.928123 0.272538
vt 0.925301 0.189450
vt 0.929426 0.271686
vt 0.334649 0.335610
vt 0.333863 0.266803
vt 0.335696 0.266602
vt 0.901652 0.176348
vt 0.912907 0.173607
vt 0.918192 0.802049
vt 0.337318 0.266504
vt 0.337318 0.335378
vt 0.559878 0.809543
vt 0.556590 0.821098
vt 0.536277 0.815760
vt 0.922647 0.893894
vt 0.928959 0.889928
vt 0.544744 0.806975
vt 0.548375 0.806521
vt 0.552088 0.806676
vt 0.557182 0.808015
vt 0.876127 0.469232
vt 0.984128 0.629198
vt 0.982218 0.628706
vt 0.980007 0.627675
vt 0.909614 0.273172
vt 0.915951 0.274968
vt 0.919639 0.274993
vt 0.923299 0.274417
vt 0.926648 0.273286
vt 0.336064 0.335454
vt 0.926732 0.188236
vt 0.927878 0.186934
vt 0.929239 0.184168
vt 0.928720 0.185569
vt 0.898129 0.190381
vt 0.895908 0.188030
vt 0.896869 0.189259
vt 0.895262 0.186716
vt 0.894946 0.185343
vt 0.895319 0.182529
vt 0.896000 0.181143
vt 0.894965 0.183939
vt 0.896997 0.179806
vt 0.898289 0.178546
vt 0.899851 0.177385
vt 0.903659 0.175453
vt 0.905831 0.174719
vt 0.908126 0.174160
vt 0.910500 0.173787
vt 0.929276 0.181366
vt 0.929426 0.182758
vt 0.921931 0.174827
vt 0.915299 0.173623
vt 0.919856 0.174239
vt 0.923817 0.175588
vt 0.925476 0.176507
vt 0.926875 0.177566
vt 0.928794 0.180020
vt 0.927989 0.178745
vt 0.917631 0.173835
vt 0.920639 0.894973
vt 0.540912 0.820440
vt 0.536743 0.816829
vt 0.536067 0.814664
vt 0.536117 0.813564
vt 0.536987 0.811432
vt 0.536426 0.812479
vt 0.537791 0.810442
vt 0.562693 0.813581
vt 0.562773 0.814682
vt 0.537455 0.817851
vt 0.545839 0.821985
vt 0.544082 0.821607
vt 0.542429 0.821089
vt 0.562158 0.816846
vt 0.562594 0.815777
vt 0.561473 0.817867
vt 0.560555 0.818820
vt 0.558089 0.820452
vt 0.559419 0.819687
vt 0.554951 0.821614
vt 0.551384 0.822218
vt 0.549526 0.822293
vt 0.553204 0.821990
vt 0.547665 0.822215
vt 0.538401 0.818806
vt 0.539560 0.819674
vt 0.560933 0.810457
vt 0.561764 0.811448
vt 0.562355 0.812496
vn -0.981300 -0.093700 -0.168300
vn -0.998500 -0.017800 -0.052600
vn -0.996200 0.059100 0.063700
vn -0.974600 0.135500 0.178300
vn -0.934100 0.209800 0.289000
vn -0.875300 0.280600 0.393800
vn -0.799600 0.346600 0.490400
vn -0.708300 0.406500 0.577100
vn -0.603200 0.459000 0.652200
vn -0.486400 0.503300 0.714200
vn -0.360200 0.538300 0.761900
vn -0.227000 0.563500 0.794300
vn -0.089300 0.578300 0.810900
vn 0.050000 0.582500 0.811300
vn 0.188400 0.575900 0.795500
vn 0.323000 0.558700 0.763800
vn 0.451400 0.531300 0.716900
vn 0.571000 0.494100 0.655600
vn 0.679400 0.448000 0.581100
vn 0.774600 0.393700 0.494900
vn 0.854700 0.332300 0.398700
vn 0.918200 0.265100 0.294300
vn 0.963700 0.193400 0.183800
vn 0.990500 0.118500 0.069400
vn 0.998000 0.041900 -0.046900
vn 0.986100 -0.034900 -0.162600
vn 0.954900 -0.110500 -0.275600
vn 0.905100 -0.183200 -0.383600
vn 0.837700 -0.251800 -0.484500
vn 0.754000 -0.314900 -0.576400
vn 0.655600 -0.371200 -0.657600
vn 0.544400 -0.419700 -0.726200
vn 0.422600 -0.459500 -0.781200
vn 0.292600 -0.489600 -0.821400
vn 0.156800 -0.509700 -0.846000
vn 0.018000 -0.519200 -0.854500
vn -0.121200 -0.518000 -0.846700
vn -0.258100 -0.506100 -0.822900
vn -0.389900 -0.483800 -0.783500
vn -0.514200 -0.451400 -0.729300
vn -0.628500 -0.409600 -0.661200
vn -0.730500 -0.359300 -0.580700
vn -0.818400 -0.301300 -0.489300
vn 0.023400 -0.834100 0.551200
vn -0.945000 -0.167200 -0.281000
vn -0.890400 -0.236900 -0.388700
vn -0.023300 0.834100 -0.551200
vn -0.934000 0.209800 0.289000
vn -0.486500 0.503300 0.714200
vn 0.918200 0.265100 0.294400
vn 0.990500 0.118500 0.069300
vn 0.837800 -0.251800 -0.484500
vn 0.754000 -0.314900 -0.576500
vn 0.655600 -0.371200 -0.657500
vn 0.544400 -0.419800 -0.726300
vn 0.292600 -0.489700 -0.821400
vn 0.156800 -0.509700 -0.845900
vn 0.023400 -0.834100 0.551100
vn 0.023400 -0.833900 0.551300
vn 0.023400 -0.834000 0.551200
vn 0.023300 -0.834300 0.550900
vn 0.023300 -0.834000 0.551300
vn 0.023300 -0.834000 0.551200
vn 0.023500 -0.834100 0.551100
vn 0.023300 -0.834100 0.551200
vn 0.023600 -0.834100 0.551100
vn 0.023400 -0.833900 0.551400
vn 0.023500 -0.834200 0.550900
vn 0.023400 -0.833800 0.551600
vn 0.023400 -0.834200 0.551000
vn 0.023300 -0.834100 0.551100
vn 0.023400 -0.834000 0.551300
vn 0.023200 -0.834100 0.551100
vn -0.023300 0.834100 -0.551100
vn -0.023400 0.834100 -0.551200
vn -0.023300 0.834000 -0.551200
vn -0.023600 0.834200 -0.551000
vn -0.023300 0.833900 -0.551500
vn -0.023400 0.833800 -0.551600
vn -0.023400 0.834200 -0.550900
vn -0.023400 0.834100 -0.551100
vn -0.023400 0.834000 -0.551200
vn -0.023300 0.833800 -0.551500
vn -0.023300 0.834300 -0.550800
vn -0.023200 0.834100 -0.551200
vn -0.023500 0.833800 -0.551600
vn -0.023200 0.834000 -0.551200
vn -0.023400 0.834100 -0.551000
vn -0.023200 0.834200 -0.551000
vn -0.022900 0.834100 -0.551100
s off
f 1/1/1 2/2/1 4/3/1
f 4/3/2 6/4/2 5/5/2
f 6/4/3 8/6/3 7/7/3
f 8/6/4 10/8/4 9/9/4
f 10/8/5 12/10/5 11/11/5
f 12/10/6 14/12/6 13/13/6
f 13/13/7 14/12/7 16/14/7
f 15/15/8 16/16/8 18/17/8
f 17/18/9 18/17/9 20/19/9
f 19/20/10 20/19/10 22/21/10
f 21/22/11 22/21/11 24/23/11
f 24/23/12 26/24/12 25/25/12
f 25/25/13 26/24/13 28/26/13
f 28/26/14 30/27/14 29/28/14
f 29/28/15 30/27/15 32/29/15
f 32/29/16 34/30/16 33/31/16
f 33/31/17 34/30/17 36/32/17
f 35/33/18 36/32/18 38/34/18
f 38/34/19 40/35/19 39/36/19
f 39/36/20 40/35/20 42/37/20
f 42/38/21 44/39/21 43/40/21
f 44/39/22 46/41/22 45/42/22
f 46/41/23 48/43/23 47/44/23
f 48/45/24 50/46/24 49/47/24
f 49/47/25 50/46/25 52/48/25
f 52/48/26 54/49/26 53/50/26
f 53/50/27 54/49/27 56/51/27
f 56/51/28 58/52/28 57/53/28
f 58/52/29 60/54/29 59/55/29
f 60/54/30 62/56/30 61/57/30
f 62/58/31 64/59/31 63/60/31
f 64/59/32 66/61/32 65/62/32
f 65/62/33 66/61/33 68/63/33
f 67/64/34 68/63/34 70/65/34
f 70/65/35 72/66/35 71/67/35
f 71/67/36 72/66/36 74/68/36
f 74/68/37 76/69/37 75/70/37
f 75/70/38 76/69/38 78/71/38
f 78/71/39 80/72/39 79/73/39
f 79/73/40 80/72/40 82/74/40
f 82/74/41 84/75/41 83/76/41
f 84/75/42 86/77/42 85/78/42
f 85/79/43 86/80/43 88/81/43
f 82/74/44 38/82/44 28/83/44
f 90/84/45 2/2/45 1/1/45
f 88/81/46 90/85/46 89/86/46
f 41/87/47 65/88/47 3/89/47
f 3/90/1 1/1/1 4/3/1
f 3/90/2 4/3/2 5/5/2
f 5/5/3 6/4/3 7/7/3
f 7/7/4 8/6/4 9/9/4
f 9/9/48 10/8/48 11/11/48
f 11/11/6 12/10/6 13/13/6
f 15/91/7 13/13/7 16/14/7
f 17/18/8 15/15/8 18/17/8
f 19/20/9 17/18/9 20/19/9
f 21/22/49 19/20/49 22/21/49
f 23/92/11 21/22/11 24/23/11
f 23/92/12 24/23/12 25/25/12
f 27/93/13 25/25/13 28/26/13
f 27/93/14 28/26/14 29/28/14
f 31/94/15 29/28/15 32/29/15
f 31/94/16 32/29/16 33/31/16
f 35/33/17 33/31/17 36/32/17
f 37/95/18 35/33/18 38/34/18
f 37/95/19 38/34/19 39/36/19
f 41/87/20 39/36/20 42/37/20
f 41/96/21 42/38/21 43/40/21
f 43/40/50 44/39/50 45/42/50
f 45/42/23 46/41/23 47/44/23
f 47/97/51 48/45/51 49/47/51
f 51/98/25 49/47/25 52/48/25
f 51/98/26 52/48/26 53/50/26
f 55/99/27 53/50/27 56/51/27
f 55/99/28 56/51/28 57/53/28
f 57/53/52 58/52/52 59/55/52
f 59/55/53 60/54/53 61/57/53
f 61/100/54 62/58/54 63/60/54
f 63/60/55 64/59/55 65/62/55
f 67/64/33 65/62/33 68/63/33
f 69/101/56 67/64/56 70/65/56
f 69/101/57 70/65/57 71/67/57
f 73/102/36 71/67/36 74/68/36
f 73/102/37 74/68/37 75/70/37
f 77/103/38 75/70/38 78/71/38
f 77/103/39 78/71/39 79/73/39
f 81/104/40 79/73/40 82/74/40
f 81/104/41 82/74/41 83/76/41
f 83/76/42 84/75/42 85/78/42
f 87/105/43 85/79/43 88/81/43
f 87/105/46 88/81/46 89/86/46
f 88/106/58 82/74/58 90/107/58
f 84/75/59 82/74/59 86/77/59
f 4/108/60 2/109/60 90/107/60
f 78/71/61 76/69/61 74/68/61
f 72/66/62 78/71/62 74/68/62
f 72/66/63 70/65/63 68/63/63
f 68/63/58 66/61/58 64/59/58
f 64/59/64 62/58/64 60/110/64
f 56/111/65 72/66/65 58/112/65
f 56/111/66 54/113/66 52/114/66
f 48/115/58 46/116/58 50/117/58
f 44/118/67 42/119/67 46/116/67
f 40/120/68 38/82/68 42/119/68
f 38/82/65 82/74/65 78/71/65
f 36/121/69 34/122/69 32/123/69
f 32/123/60 30/124/60 28/83/60
f 8/125/65 6/126/65 4/108/65
f 20/127/70 26/128/70 22/129/70
f 20/127/60 18/130/60 16/131/60
f 14/132/44 10/133/44 8/125/44
f 20/127/71 14/132/71 8/125/71
f 82/74/62 88/106/62 86/77/62
f 58/112/44 72/66/44 68/63/44
f 72/66/65 38/82/65 78/71/65
f 60/110/63 58/112/63 68/63/63
f 68/63/58 64/59/58 60/110/58
f 52/114/58 72/66/58 56/111/58
f 8/125/65 28/83/65 20/127/65
f 46/116/65 52/114/65 50/117/65
f 28/83/72 38/82/72 32/123/72
f 82/74/65 8/125/65 90/107/65
f 14/132/60 12/134/60 10/133/60
f 26/128/65 24/135/65 22/129/65
f 28/83/65 26/128/65 20/127/65
f 72/66/65 46/116/65 38/82/65
f 52/114/44 46/116/44 72/66/44
f 38/82/71 36/121/71 32/123/71
f 42/119/60 38/82/60 46/116/60
f 89/136/45 90/84/45 1/1/45
f 20/127/63 16/131/63 14/132/63
f 8/125/65 82/74/65 28/83/65
f 82/74/73 80/72/73 78/71/73
f 8/125/44 4/108/44 90/107/44
f 3/89/74 83/137/74 1/138/74
f 3/89/75 5/139/75 7/140/75
f 11/141/75 3/89/75 9/142/75
f 15/15/76 19/20/76 13/143/76
f 15/15/77 17/18/77 19/20/77
f 19/20/76 21/22/76 23/92/76
f 23/92/78 25/25/78 27/93/78
f 27/93/79 29/28/79 31/94/79
f 35/33/80 37/95/80 33/31/80
f 39/36/81 41/87/81 37/95/81
f 49/144/81 51/145/81 41/87/81
f 83/137/82 89/146/82 1/138/82
f 77/147/80 79/148/80 81/149/80
f 55/150/47 65/88/47 53/151/47
f 55/150/81 57/152/81 59/153/81
f 63/154/77 65/88/77 61/155/77
f 65/88/74 67/156/74 83/137/74
f 71/157/83 73/158/83 69/159/83
f 75/160/84 77/147/84 73/158/84
f 83/137/85 77/147/85 81/149/85
f 87/161/86 89/146/86 85/162/86
f 65/88/76 51/145/76 53/151/76
f 23/92/75 3/89/75 19/20/75
f 27/93/75 3/89/75 23/92/75
f 33/31/82 37/95/82 27/93/82
f 65/88/87 59/153/87 61/155/87
f 31/94/47 33/31/47 27/93/47
f 59/153/74 65/88/74 55/150/74
f 41/87/88 43/163/88 45/164/88
f 3/89/47 27/93/47 37/95/47
f 73/158/81 77/147/81 83/137/81
f 51/145/47 65/88/47 41/87/47
f 11/141/75 13/143/75 3/89/75
f 3/89/47 13/143/47 19/20/47
f 41/87/47 3/89/47 37/95/47
f 83/137/82 67/156/82 69/159/82
f 41/87/47 45/164/47 49/144/47
f 3/89/47 7/140/47 9/142/47
f 73/158/47 83/137/47 69/159/47
f 65/88/75 83/137/75 3/89/75
f 89/146/89 83/137/89 85/162/89
f 45/164/90 47/165/90 49/144/90
