# Blender v2.71 (sub 0) OBJ File: 'WIP Dude Frame - unjoined.blend'
# www.blender.org
o Left_Upper_Leg_Sphere.016
v 0.313526 1.699772 -1.043110
v 0.313526 3.197826 -0.945989
v 0.396348 1.698632 -1.032266
v 0.411877 3.196473 -0.933111
v 0.473526 1.695291 -1.000473
v 0.503526 3.192505 -0.895357
v 0.539800 1.689975 -0.949898
v 0.582227 3.186192 -0.835299
v 0.590654 1.683047 -0.883986
v 0.642616 3.177966 -0.757030
v 0.622622 1.674980 -0.807232
v 0.680578 3.168386 -0.665883
v 0.633526 1.666322 -0.724863
v 0.693526 3.158106 -0.568071
v 0.622622 1.657666 -0.642495
v 0.680578 3.147825 -0.470258
v 0.590654 1.649598 -0.565740
v 0.642616 3.138245 -0.379111
v 0.539800 1.642671 -0.499828
v 0.582227 3.130019 -0.300842
v 0.473526 1.637354 -0.449253
v 0.503526 3.123706 -0.240784
v 0.396348 1.634014 -0.417460
v 0.411877 3.119738 -0.203029
v 0.313526 1.632874 -0.406616
v 0.313526 3.118385 -0.190152
v 0.230704 1.634013 -0.417460
v 0.215175 3.119738 -0.203029
v 0.153526 1.637354 -0.449253
v 0.123526 3.123706 -0.240783
v 0.087252 1.642670 -0.499828
v 0.044826 3.130019 -0.300841
v 0.036398 1.649598 -0.565739
v -0.015564 3.138245 -0.379111
v 0.004430 1.657665 -0.642494
v -0.053526 3.147825 -0.470258
v -0.006474 1.666322 -0.724863
v -0.066474 3.158106 -0.568069
v 0.004430 1.674980 -0.807231
v -0.053526 3.168386 -0.665882
v 0.036398 1.683047 -0.883986
v -0.015564 3.177966 -0.757029
v 0.087252 1.689975 -0.949897
v 0.044825 3.186193 -0.835299
v 0.153526 1.695291 -1.000473
v 0.123526 3.192505 -0.895357
v 0.230704 1.698632 -1.032266
v 0.215175 3.196473 -0.933111
vt 0.350860 0.878559
vt 0.345716 0.958636
vt 0.337976 0.957834
vt 0.378292 0.876826
vt 0.385465 0.879264
vt 0.390183 0.957539
vt 0.393291 0.881880
vt 0.396773 0.959742
vt 0.401235 0.884493
vt 0.403463 0.961943
vt 0.408758 0.886927
vt 0.409798 0.963993
vt 0.415345 0.889016
vt 0.415345 0.965751
vt 0.827611 0.544569
vt 0.819463 0.467865
vt 0.825516 0.469133
vt 0.832903 0.470488
vt 0.838928 0.546779
vt 0.841122 0.471838
vt 0.849611 0.473089
vt 0.852998 0.548969
vt 0.857793 0.474158
vt 0.859888 0.549869
vt 0.865110 0.474970
vt 0.871063 0.475471
vt 0.871063 0.550975
vt 0.709907 0.823322
vt 0.709907 0.901482
vt 0.705628 0.903097
vt 0.706303 0.824682
vt 0.699815 0.905280
vt 0.692867 0.907880
vt 0.695557 0.828710
vt 0.685255 0.910722
vt 0.689148 0.831103
vt 0.677500 0.913610
vt 0.670128 0.916349
vt 0.676409 0.835842
vt 0.663643 0.918752
vt 0.670948 0.837865
vt 0.378292 0.956578
vt 0.371060 0.957846
vt 0.362842 0.958642
vt 0.365281 0.878564
vt 0.736133 0.499856
vt 0.761331 0.479514
vt 0.790675 0.492074
vt 0.354197 0.958912
vt 0.627825 0.961187
vt 0.621081 0.959266
vt 0.615034 0.955587
vt 0.344341 0.877884
vt 0.384142 0.955486
vt 0.832708 0.545638
vt 0.845849 0.547915
vt 0.866050 0.550553
vt 0.701409 0.826520
vt 0.682617 0.833535
vt 0.372202 0.877894
vt 0.796967 0.507923
vt 0.796967 0.516592
vt 0.794821 0.499560
vt 0.794821 0.524976
vt 0.790675 0.532504
vt 0.784812 0.538663
vt 0.769623 0.545318
vt 0.761331 0.545359
vt 0.777632 0.543034
vt 0.753322 0.543156
vt 0.740279 0.532758
vt 0.746142 0.538858
vt 0.736133 0.525271
vt 0.733987 0.516909
vt 0.733987 0.508240
vt 0.740279 0.492328
vt 0.746142 0.486169
vt 0.753322 0.481798
vt 0.769623 0.479472
vt 0.777632 0.481676
vt 0.784812 0.485974
vt 0.358002 0.878791
vt 0.657832 0.929947
vt 0.657832 0.937249
vt 0.656025 0.944293
vt 0.647597 0.955740
vt 0.641551 0.959362
vt 0.652534 0.950600
vt 0.634807 0.961220
vt 0.652534 0.916546
vt 0.610097 0.916346
vt 0.627825 0.905726
vt 0.610097 0.950400
vt 0.604799 0.936999
vt 0.604799 0.929697
vt 0.606606 0.922653
vt 0.621081 0.907584
vt 0.634807 0.905759
vt 0.641551 0.907680
vt 0.647597 0.911359
vt 0.656025 0.922886
vt 0.606606 0.944060
vt 0.615034 0.911206
vn 0.000000 -0.614200 -0.789100
vn 0.000000 0.738600 -0.674100
vn 0.193500 0.736000 -0.648700
vn 0.373800 0.728200 -0.574400
vn 0.360300 -0.624300 -0.693100
vn 0.528600 0.715800 -0.456300
vn 0.509500 -0.636300 -0.579200
vn 0.647400 0.699600 -0.302300
vn 0.624000 -0.651900 -0.430800
vn 0.722100 0.680700 -0.123000
vn 0.696000 -0.670100 -0.257900
vn 0.747600 0.660500 0.069400
vn 0.720600 -0.689600 -0.072500
vn 0.722100 0.640300 0.261800
vn 0.647400 0.621400 0.441100
vn 0.624000 -0.727200 0.285800
vn 0.528600 0.605200 0.595100
vn 0.373800 0.592800 0.713300
vn 0.360300 -0.754800 0.548100
vn 0.193500 0.585000 0.787600
vn 0.186500 -0.762300 0.619700
vn 0.000000 0.582400 0.812900
vn -0.193500 0.585000 0.787600
vn -0.186500 -0.762300 0.619700
vn -0.373800 0.592800 0.713300
vn -0.360300 -0.754800 0.548100
vn -0.528600 0.605200 0.595100
vn -0.647400 0.621400 0.441100
vn -0.624000 -0.727200 0.285800
vn -0.722100 0.640300 0.261800
vn -0.696000 -0.709100 0.113000
vn -0.747600 0.660500 0.069400
vn -0.722100 0.680700 -0.123000
vn -0.696000 -0.670100 -0.257900
vn -0.647400 0.699600 -0.302300
vn -0.624000 -0.651900 -0.430800
vn -0.528600 0.715800 -0.456300
vn -0.373800 0.728200 -0.574400
vn -0.360300 -0.624300 -0.693100
vn -0.193500 0.736000 -0.648700
vn 0.696000 -0.709000 0.113000
vn 0.186500 -0.616800 -0.764700
vn 0.509500 -0.742800 0.434200
vn 0.000000 -0.764900 0.644100
vn -0.509500 -0.742800 0.434200
vn -0.720500 -0.689600 -0.072500
vn -0.509500 -0.636300 -0.579200
vn -0.186500 -0.616800 -0.764700
s 1
f 1/1/1 2/2/2 4/3/3
f 4/4/3 6/5/4 5/6/5
f 6/5/4 8/7/6 7/8/7
f 8/7/6 10/9/8 9/10/9
f 10/9/8 12/11/10 11/12/11
f 12/11/10 14/13/12 13/14/13
f 13/15/13 14/16/12 16/17/14
f 16/17/14 18/18/15 17/19/16
f 17/19/16 18/18/15 20/20/17
f 20/20/17 22/21/18 21/22/19
f 22/21/18 24/23/20 23/24/21
f 23/24/21 24/23/20 26/25/22
f 26/25/22 28/26/23 27/27/24
f 27/28/24 28/29/23 30/30/25
f 29/31/26 30/30/25 32/32/27
f 32/32/27 34/33/28 33/34/29
f 34/33/28 36/35/30 35/36/31
f 35/36/31 36/35/30 38/37/32
f 38/37/32 40/38/33 39/39/34
f 40/38/33 42/40/35 41/41/36
f 41/4/36 42/42/35 44/43/37
f 44/43/37 46/44/38 45/45/39
f 22/46/18 14/47/12 6/48/4
f 48/49/40 2/2/2 1/1/1
f 45/45/39 46/44/38 48/49/40
f 13/50/13 15/51/41 17/52/16
f 3/53/42 1/1/1 4/3/3
f 3/54/42 4/4/3 5/6/5
f 5/6/5 6/5/4 7/8/7
f 7/8/7 8/7/6 9/10/9
f 9/10/9 10/9/8 11/12/11
f 11/12/11 12/11/10 13/14/13
f 15/55/41 13/15/13 16/17/14
f 15/55/41 16/17/14 17/19/16
f 19/56/43 17/19/16 20/20/17
f 19/56/43 20/20/17 21/22/19
f 21/22/19 22/21/18 23/24/21
f 25/57/44 23/24/21 26/25/22
f 25/57/44 26/25/22 27/27/24
f 29/31/26 27/28/24 30/30/25
f 31/58/45 29/31/26 32/32/27
f 31/58/45 32/32/27 33/34/29
f 33/34/29 34/33/28 35/36/31
f 37/59/46 35/36/31 38/37/32
f 37/59/46 38/37/32 39/39/34
f 39/39/34 40/38/33 41/41/36
f 43/60/47 41/4/36 44/43/37
f 43/60/47 44/43/37 45/45/39
f 2/61/2 48/62/40 4/63/3
f 48/62/40 46/64/38 44/65/37
f 42/66/35 48/62/40 44/65/37
f 38/67/32 36/68/30 40/69/33
f 34/70/28 30/71/25 36/68/30
f 34/70/28 32/72/27 30/71/25
f 30/71/25 28/73/23 26/74/22
f 26/74/22 24/75/20 22/46/18
f 22/46/18 20/76/17 18/77/15
f 18/77/15 16/78/14 14/47/12
f 14/47/12 12/79/10 10/80/8
f 10/80/8 8/81/6 6/48/4
f 47/82/48 45/45/39 48/49/40
f 4/63/3 48/62/40 42/66/35
f 30/71/25 26/74/22 36/68/30
f 22/46/18 42/66/35 26/74/22
f 22/46/18 18/77/15 14/47/12
f 14/47/12 10/80/8 6/48/4
f 4/63/3 42/66/35 22/46/18
f 26/74/22 42/66/35 36/68/30
f 47/82/48 48/49/40 1/1/1
f 6/48/4 4/63/3 22/46/18
f 36/68/30 42/66/35 40/69/33
f 47/83/48 1/84/1 3/85/42
f 7/86/7 9/87/9 5/88/5
f 11/89/11 13/50/13 9/87/9
f 43/90/47 29/91/26 35/92/31
f 29/91/26 19/93/43 23/94/21
f 29/91/26 17/52/16 19/93/43
f 23/94/21 25/95/44 27/96/24
f 17/52/16 29/91/26 43/90/47
f 35/92/31 29/91/26 33/97/29
f 35/92/31 37/98/46 39/99/34
f 39/99/34 41/100/36 43/90/47
f 43/90/47 45/101/39 47/83/48
f 13/50/13 3/85/42 9/87/9
f 19/93/43 21/102/19 23/94/21
f 9/87/9 3/85/42 5/88/5
f 39/99/34 43/90/47 35/92/31
f 43/90/47 47/83/48 3/85/42
f 23/94/21 27/96/24 29/91/26
f 43/90/47 3/85/42 13/50/13
f 29/91/26 31/103/45 33/97/29
f 43/90/47 13/50/13 17/52/16
