# Blender v2.71 (sub 0) OBJ File: 'WIP Dude Frame - unjoined.blend'
# www.blender.org
o Left_Upper_Arm_Sphere.032
v 0.508044 5.582198 -2.493630
v 0.453267 5.554133 -1.258581
v 0.481505 5.569079 -2.495210
v 0.418923 5.537156 -1.260626
v 0.453408 5.559787 -2.496979
v 0.382562 5.525131 -1.262916
v 0.424300 5.554502 -2.498903
v 0.344893 5.518292 -1.265406
v 0.394747 5.553329 -2.500945
v 0.306648 5.516772 -1.268048
v 0.365325 5.556287 -2.503065
v 0.268572 5.520602 -1.270791
v 0.336606 5.563322 -2.505220
v 0.231406 5.529706 -1.273582
v 0.309149 5.574296 -2.507371
v 0.195874 5.543906 -1.276364
v 0.283489 5.588994 -2.509474
v 0.162667 5.562928 -1.279086
v 0.260125 5.607132 -2.511489
v 0.132431 5.586401 -1.281694
v 0.239512 5.628356 -2.513377
v 0.105755 5.613866 -1.284137
v 0.222051 5.652252 -2.515100
v 0.083158 5.644792 -1.286367
v 0.208082 5.678357 -2.516626
v 0.065080 5.678574 -1.288342
v 0.197876 5.706161 -2.517925
v 0.051873 5.714556 -1.290022
v 0.191633 5.735124 -2.518970
v 0.043794 5.752037 -1.291375
v 0.189474 5.764682 -2.519743
v 0.041000 5.790289 -1.292375
v 0.191441 5.794259 -2.520227
v 0.043546 5.828565 -1.293002
v 0.197496 5.823280 -2.520414
v 0.051381 5.866121 -1.293244
v 0.207520 5.851180 -2.520300
v 0.064354 5.902227 -1.293096
v 0.221319 5.877416 -2.519886
v 0.082212 5.936180 -1.292561
v 0.238625 5.901477 -2.519183
v 0.104607 5.967318 -1.291650
v 0.259100 5.922895 -2.518202
v 0.131104 5.995036 -1.290380
v 0.282345 5.941254 -2.516962
v 0.161186 6.018793 -1.288776
v 0.307908 5.956195 -2.515489
v 0.194269 6.038129 -1.286870
v 0.335293 5.967427 -2.513810
v 0.229708 6.052666 -1.284698
v 0.363966 5.974734 -2.511959
v 0.266813 6.062121 -1.282302
v 0.393368 5.977971 -2.509972
v 0.304863 6.066310 -1.279729
v 0.422927 5.977077 -2.507885
v 0.343116 6.065153 -1.277030
v 0.452069 5.972068 -2.505743
v 0.380829 6.058671 -1.274257
v 0.480225 5.963041 -2.503584
v 0.417267 6.046989 -1.271463
v 0.506849 5.950174 -2.501452
v 0.451720 6.030338 -1.268704
v 0.531421 5.933716 -2.499388
v 0.483519 6.009039 -1.266033
v 0.553463 5.913987 -2.497432
v 0.512045 5.983508 -1.263501
v 0.572547 5.891372 -2.495621
v 0.536741 5.954240 -1.261159
v 0.588300 5.866310 -2.493993
v 0.557128 5.921808 -1.259051
v 0.600417 5.839290 -2.492577
v 0.572809 5.886840 -1.257220
v 0.608662 5.810837 -2.491403
v 0.583478 5.850019 -1.255699
v 0.612873 5.781505 -2.490491
v 0.588928 5.812060 -1.254519
v 0.612969 5.751865 -2.489861
v 0.589052 5.773703 -1.253705
v 0.608948 5.722495 -2.489525
v 0.583849 5.735693 -1.253269
v 0.600889 5.693964 -2.489489
v 0.573419 5.698772 -1.253222
v 0.588948 5.666830 -2.489753
v 0.557967 5.663657 -1.253564
v 0.573358 5.641621 -2.490313
v 0.537791 5.631033 -1.254289
v 0.554422 5.618825 -2.491158
v 0.513285 5.601533 -1.255382
v 0.532508 5.598888 -2.492270
v 0.484926 5.575732 -1.256823
vt 0.886516 0.343175
vt 0.889413 0.342604
vt 0.889596 0.443825
vt 0.892517 0.342188
vt 0.895766 0.341936
vt 0.894504 0.443309
vt 0.899097 0.341851
vt 0.902445 0.341936
vt 0.899666 0.443308
vt 0.905745 0.342188
vt 0.902216 0.443504
vt 0.908933 0.342604
vt 0.904679 0.443825
vt 0.911947 0.343175
vt 0.914728 0.343889
vt 0.909157 0.444818
vt 0.917222 0.344733
vt 0.911084 0.445470
vt 0.919381 0.345691
vt 0.921161 0.346743
vt 0.914128 0.447023
vt 0.980451 0.274359
vt 0.978619 0.273067
vt 0.979035 0.177904
vt 0.976719 0.271843
vt 0.977567 0.176959
vt 0.974787 0.270711
vt 0.976074 0.176084
vt 0.972861 0.269693
vt 0.970977 0.268808
vt 0.973130 0.174613
vt 0.969174 0.268074
vt 0.971737 0.174046
vt 0.967486 0.267505
vt 0.752988 0.925760
vt 0.751203 0.924750
vt 0.747158 0.826170
vt 0.749041 0.923830
vt 0.745487 0.825460
vt 0.746544 0.923020
vt 0.743762 0.922334
vt 0.741408 0.824304
vt 0.740748 0.921786
vt 0.737561 0.921387
vt 0.736616 0.823572
vt 0.734263 0.921145
vt 0.734068 0.823385
vt 0.730918 0.921063
vt 0.727592 0.921145
vt 0.728913 0.823385
vt 0.724349 0.921387
vt 0.726407 0.823572
vt 0.721252 0.921786
vt 0.724014 0.823880
vt 0.718361 0.922334
vt 0.721780 0.824304
vt 0.715734 0.923020
vt 0.719750 0.824834
vt 0.713420 0.923830
vt 0.717962 0.825460
vt 0.711465 0.924750
vt 0.709907 0.925760
vt 0.715247 0.826951
vt 0.974195 0.439811
vt 0.976127 0.438389
vt 0.978226 0.511394
vt 0.978080 0.437259
vt 0.980018 0.436442
vt 0.981232 0.509889
vt 0.981901 0.435956
vt 0.982688 0.509514
vt 0.983694 0.435809
vt 0.984073 0.509400
vt 0.985362 0.436003
vt 0.880797 0.447023
vt 0.878027 0.346743
vt 0.879594 0.345691
vt 0.882008 0.446210
vt 0.881558 0.344733
vt 0.965235 0.541374
vt 0.967818 0.524401
vt 0.990900 0.541014
vt 0.885320 0.444818
vt 0.883880 0.343889
vt 0.779249 0.981483
vt 0.771761 0.956844
vt 0.776127 0.959954
vt 0.887357 0.444266
vt 0.891994 0.443504
vt 0.897078 0.443243
vt 0.907008 0.444266
vt 0.912752 0.446210
vt 0.980451 0.178902
vt 0.974586 0.175297
vt 0.970432 0.173607
vt 0.748538 0.826951
vt 0.743558 0.824834
vt 0.739079 0.823880
vt 0.731483 0.823322
vt 0.716451 0.826170
vt 0.976733 0.512492
vt 0.979735 0.510520
vt 0.985362 0.509550
vt 0.883525 0.445470
vt 0.964722 0.536235
vt 0.965235 0.531132
vt 0.964851 0.538825
vt 0.964851 0.533654
vt 0.966733 0.526460
vt 0.965867 0.528718
vt 0.970556 0.521036
vt 0.972155 0.519796
vt 0.979339 0.518269
vt 0.973867 0.518885
vt 0.975658 0.518320
vt 0.989641 0.528384
vt 0.982913 0.519645
vt 0.984573 0.520839
vt 0.981158 0.518782
vt 0.986103 0.522342
vt 0.987476 0.524125
vt 0.988662 0.526152
vt 0.990392 0.530778
vt 0.990900 0.533288
vt 0.991157 0.535864
vt 0.991157 0.538456
vt 0.989641 0.545829
vt 0.988662 0.547993
vt 0.990391 0.543488
vt 0.982913 0.554098
vt 0.975658 0.554915
vt 0.987475 0.549937
vt 0.986103 0.551624
vt 0.984573 0.553020
vt 0.981157 0.554838
vt 0.979339 0.555224
vt 0.973867 0.554225
vt 0.972155 0.553194
vt 0.969101 0.550195
vt 0.965866 0.543832
vt 0.966733 0.546151
vt 0.970556 0.551842
vt 0.969101 0.522581
vt 0.967818 0.548286
vt 0.977494 0.555250
vt 0.977494 0.518114
vt 0.778385 0.963377
vt 0.779249 0.965401
vt 0.779912 0.967582
vt 0.780361 0.969878
vt 0.780588 0.972244
vt 0.757706 0.978226
vt 0.759987 0.984508
vt 0.759029 0.982577
vt 0.780588 0.974633
vt 0.779912 0.979298
vt 0.778385 0.983512
vt 0.777338 0.985346
vt 0.774776 0.988289
vt 0.773311 0.989340
vt 0.776127 0.986948
vt 0.758264 0.966536
vt 0.757254 0.973506
vt 0.771761 0.990083
vt 0.770156 0.990503
vt 0.768527 0.990591
vt 0.766907 0.990346
vt 0.765325 0.989772
vt 0.763814 0.988881
vt 0.762403 0.987691
vt 0.761119 0.986223
vt 0.758264 0.980469
vt 0.762403 0.959291
vt 0.768527 0.956355
vt 0.757368 0.971122
vt 0.757706 0.968783
vt 0.759029 0.964424
vt 0.759987 0.962488
vt 0.761119 0.960766
vt 0.763814 0.958092
vt 0.765325 0.957193
vt 0.766907 0.956610
vt 0.770156 0.956434
vt 0.774776 0.958622
vt 0.773311 0.957578
vt 0.780361 0.977000
vt 0.777338 0.961550
vt 0.757368 0.975889
vn 0.323900 -0.624300 0.710900
vn 0.231500 -0.669900 0.705300
vn 0.314900 -0.666600 -0.675600
vn 0.133800 -0.702300 0.699200
vn 0.032500 -0.720600 0.692600
vn 0.125200 -0.714900 -0.687900
vn -0.070300 -0.724800 0.685400
vn -0.172600 -0.714400 0.678000
vn -0.070200 -0.709000 -0.701700
vn -0.272600 -0.690000 0.670500
vn -0.165500 -0.685700 -0.708800
vn -0.368100 -0.651800 0.663100
vn -0.256500 -0.649300 -0.715900
vn -0.457400 -0.600600 0.655700
vn -0.538700 -0.537600 0.648600
vn -0.419000 -0.540500 -0.729600
vn -0.610400 -0.463700 0.642100
vn -0.487300 -0.470100 -0.735800
vn -0.671100 -0.380500 0.636200
vn -0.719800 -0.289700 0.630800
vn -0.591500 -0.304400 -0.746600
vn -0.755200 -0.193000 0.626400
vn -0.625400 -0.212200 -0.750900
vn -0.777000 -0.092200 0.622700
vn -0.646000 -0.116200 -0.754400
vn -0.784500 0.010600 0.620000
vn -0.653200 -0.018200 -0.757000
vn -0.777600 0.113500 0.618300
vn -0.756600 0.214500 0.617700
vn -0.626600 0.176000 -0.759100
vn -0.721700 0.311600 0.618100
vn -0.593200 0.268500 -0.758900
vn -0.673600 0.402800 0.619600
vn -0.613500 0.486600 0.622000
vn -0.490300 0.435300 -0.755100
vn -0.542300 0.561100 0.625400
vn -0.422400 0.506200 -0.751900
vn -0.461400 0.625000 0.629700
vn -0.372400 0.677000 0.634800
vn -0.260600 0.616600 -0.742900
vn -0.277100 0.716100 0.640600
vn -0.177400 0.741500 0.647100
vn -0.074800 0.678100 -0.731100
vn -0.075100 0.752700 0.654000
vn 0.022700 0.688800 -0.724500
vn 0.027700 0.749600 0.661200
vn 0.129100 0.732200 0.668700
vn 0.217300 0.669200 -0.710500
vn 0.227100 0.700800 0.676200
vn 0.310600 0.639300 -0.703400
vn 0.319700 0.656000 0.683600
vn 0.398800 0.596700 -0.696300
vn 0.405200 0.598700 0.690800
vn 0.480300 0.542100 -0.689500
vn 0.481900 0.530100 0.697700
vn 0.553400 0.476700 -0.683000
vn 0.548300 0.451400 0.703900
vn 0.616700 0.401700 -0.677000
vn 0.603100 0.364200 0.709600
vn 0.645300 0.270200 0.714500
vn 0.709000 0.229100 -0.666900
vn 0.674000 0.171200 0.718600
vn 0.736400 0.134800 -0.663000
vn 0.688600 0.069200 0.721800
vn 0.689000 -0.034000 0.724000
vn 0.750600 -0.060700 -0.657900
vn 0.674900 -0.136100 0.725200
vn 0.737300 -0.158100 -0.656800
vn 0.646900 -0.235400 0.725300
vn 0.710600 -0.252600 -0.656700
vn 0.605300 -0.329800 0.724400
vn 0.671000 -0.342600 -0.657500
vn 0.551100 -0.417500 0.722400
vn 0.619300 -0.426100 -0.659400
vn 0.485200 -0.496800 0.719500
vn 0.483900 -0.567800 -0.665900
vn 0.409100 -0.566300 0.715500
vn 0.402900 -0.623100 -0.670300
vn 0.221700 -0.697500 -0.681400
vn 0.027300 -0.718800 -0.694600
vn -0.341600 -0.600600 -0.722900
vn -0.545200 -0.390900 -0.741500
vn -0.646600 0.079800 -0.758600
vn -0.547700 0.355500 -0.757400
vn -0.345400 0.567200 -0.747600
vn -0.169800 0.653900 -0.737300
vn 0.120700 0.685900 -0.717600
vn 0.668900 0.318600 -0.671600
vn 0.750300 0.037500 -0.660000
vn 0.556500 -0.501700 -0.662200
s 1
f 2/1/1 4/2/2 3/3/3
f 3/3/3 4/2/2 6/4/4
f 6/4/4 8/5/5 7/6/6
f 7/6/6 8/5/5 10/7/7
f 10/7/7 12/8/8 11/9/9
f 12/8/8 14/10/10 13/11/11
f 13/11/11 14/10/10 16/12/12
f 15/13/13 16/12/12 18/14/14
f 18/14/14 20/15/15 19/16/16
f 20/15/15 22/17/17 21/18/18
f 21/18/18 22/17/17 24/19/19
f 24/19/19 26/20/20 25/21/21
f 26/22/20 28/23/22 27/24/23
f 28/23/22 30/25/24 29/26/25
f 29/26/25 30/25/24 32/27/26
f 31/28/27 32/27/26 34/29/28
f 34/29/28 36/30/29 35/31/30
f 36/30/29 38/32/31 37/33/32
f 37/33/32 38/32/31 40/34/33
f 40/35/33 42/36/34 41/37/35
f 42/36/34 44/38/36 43/39/37
f 43/39/37 44/38/36 46/40/38
f 46/40/38 48/41/39 47/42/40
f 47/42/40 48/41/39 50/43/41
f 50/43/41 52/44/42 51/45/43
f 52/44/42 54/46/44 53/47/45
f 53/47/45 54/46/44 56/48/46
f 56/48/46 58/49/47 57/50/48
f 58/49/47 60/51/49 59/52/50
f 60/51/49 62/53/51 61/54/52
f 62/53/51 64/55/53 63/56/54
f 64/55/53 66/57/55 65/58/56
f 65/58/56 66/57/55 68/59/57
f 67/60/58 68/59/57 70/61/59
f 70/61/59 72/62/60 71/63/61
f 72/64/60 74/65/62 73/66/63
f 73/66/63 74/65/62 76/67/64
f 76/67/64 78/68/65 77/69/66
f 78/68/65 80/70/67 79/71/68
f 80/70/67 82/72/69 81/73/70
f 81/73/70 82/72/69 84/74/71
f 83/75/72 84/76/71 86/77/73
f 85/78/74 86/77/73 88/79/75
f 6/80/4 82/81/69 44/82/36
f 89/83/76 90/84/77 2/1/1
f 88/79/75 90/84/77 89/83/76
f 15/85/13 79/86/68 85/87/74
f 1/88/78 2/1/1 3/3/3
f 5/89/79 3/3/3 6/4/4
f 5/89/79 6/4/4 7/6/6
f 9/90/80 7/6/6 10/7/7
f 9/90/80 10/7/7 11/9/9
f 11/9/9 12/8/8 13/11/11
f 15/13/13 13/11/11 16/12/12
f 17/91/81 15/13/13 18/14/14
f 17/91/81 18/14/14 19/16/16
f 19/16/16 20/15/15 21/18/18
f 23/92/82 21/18/18 24/19/19
f 23/92/82 24/19/19 25/21/21
f 25/93/21 26/22/20 27/24/23
f 27/24/23 28/23/22 29/26/25
f 31/28/27 29/26/25 32/27/26
f 33/94/83 31/28/27 34/29/28
f 33/94/83 34/29/28 35/31/30
f 35/31/30 36/30/29 37/33/32
f 39/95/84 37/33/32 40/34/33
f 39/96/84 40/35/33 41/37/35
f 41/37/35 42/36/34 43/39/37
f 45/97/85 43/39/37 46/40/38
f 45/97/85 46/40/38 47/42/40
f 49/98/86 47/42/40 50/43/41
f 49/98/86 50/43/41 51/45/43
f 51/45/43 52/44/42 53/47/45
f 55/99/87 53/47/45 56/48/46
f 55/99/87 56/48/46 57/50/48
f 57/50/48 58/49/47 59/52/50
f 59/52/50 60/51/49 61/54/52
f 61/54/52 62/53/51 63/56/54
f 63/56/54 64/55/53 65/58/56
f 67/60/58 65/58/56 68/59/57
f 69/100/88 67/60/58 70/61/59
f 69/100/88 70/61/59 71/63/61
f 71/101/61 72/64/60 73/66/63
f 75/102/89 73/66/63 76/67/64
f 75/102/89 76/67/64 77/69/66
f 77/69/66 78/68/65 79/71/68
f 79/71/68 80/70/67 81/73/70
f 83/103/72 81/73/70 84/74/71
f 85/78/74 83/75/72 86/77/73
f 87/104/90 85/78/74 88/79/75
f 2/105/1 88/106/75 4/107/2
f 2/105/1 90/108/77 88/106/75
f 84/109/71 82/81/69 86/110/73
f 78/111/65 76/112/64 44/82/36
f 82/81/69 6/80/4 86/110/73
f 68/113/57 74/114/62 72/115/60
f 54/116/44 64/117/53 62/118/51
f 68/113/57 66/119/55 64/117/53
f 60/120/49 54/116/44 62/118/51
f 60/120/49 58/121/47 56/122/46
f 54/116/44 52/123/42 50/124/41
f 48/125/39 46/126/38 50/124/41
f 1/88/78 89/83/76 2/1/1
f 40/127/33 38/128/31 42/129/34
f 30/130/24 22/131/17 36/132/29
f 36/132/29 34/133/28 32/134/26
f 30/130/24 28/135/22 26/136/20
f 87/104/90 88/79/75 89/83/76
f 20/137/15 18/138/14 22/131/17
f 14/139/10 6/80/4 18/138/14
f 74/114/62 46/126/38 44/82/36
f 8/140/5 6/80/4 10/141/7
f 76/112/64 74/114/62 44/82/36
f 18/138/14 16/142/12 14/139/10
f 82/81/69 80/143/67 78/111/65
f 54/116/44 68/113/57 64/117/53
f 68/113/57 54/116/44 74/114/62
f 14/139/10 12/144/8 6/80/4
f 46/126/38 54/116/44 50/124/41
f 30/130/24 26/136/20 24/145/19
f 42/129/34 38/128/31 18/138/14
f 70/146/59 68/113/57 72/115/60
f 88/106/75 6/80/4 4/107/2
f 82/81/69 78/111/65 44/82/36
f 36/132/29 22/131/17 38/128/31
f 74/114/62 54/116/44 46/126/38
f 22/131/17 18/138/14 38/128/31
f 6/80/4 88/106/75 86/110/73
f 24/145/19 22/131/17 30/130/24
f 36/132/29 32/134/26 30/130/24
f 6/80/4 12/144/8 10/141/7
f 44/82/36 42/129/34 18/138/14
f 18/138/14 6/80/4 44/82/36
f 60/120/49 56/122/46 54/116/44
f 89/147/76 1/148/78 3/149/3
f 3/149/3 5/150/79 7/151/6
f 49/152/86 43/153/37 45/154/85
f 15/85/13 9/155/80 13/156/11
f 15/85/13 17/157/81 19/158/16
f 23/159/82 25/160/21 21/161/18
f 59/162/50 49/152/86 53/163/45
f 27/164/23 29/165/25 31/166/27
f 31/166/27 33/167/83 35/168/30
f 35/168/30 37/169/32 39/170/84
f 41/171/35 43/153/37 49/152/86
f 47/172/40 49/152/86 45/154/85
f 67/173/58 75/174/89 79/86/68
f 55/175/87 59/162/50 53/163/45
f 55/175/87 57/176/48 59/162/50
f 59/162/50 61/177/52 63/178/54
f 67/173/58 79/86/68 65/179/56
f 67/173/58 69/180/88 71/181/61
f 75/174/89 67/173/58 73/182/63
f 75/174/89 77/183/66 79/86/68
f 83/184/72 85/87/74 81/185/70
f 3/149/3 85/87/74 89/147/76
f 35/168/30 39/170/84 41/171/35
f 79/86/68 59/162/50 63/178/54
f 25/160/21 31/166/27 21/161/18
f 67/173/58 71/181/61 73/182/63
f 85/87/74 79/86/68 81/185/70
f 9/155/80 11/186/9 13/156/11
f 15/85/13 41/171/35 59/162/50
f 85/87/74 3/149/3 7/151/6
f 15/85/13 85/87/74 7/151/6
f 31/166/27 15/85/13 19/158/16
f 85/87/74 87/187/90 89/147/76
f 31/166/27 35/168/30 41/171/35
f 49/152/86 51/188/43 53/163/45
f 79/86/68 63/178/54 65/179/56
f 25/160/21 27/164/23 31/166/27
f 59/162/50 79/86/68 15/85/13
f 15/85/13 31/166/27 41/171/35
f 59/162/50 41/171/35 49/152/86
f 31/166/27 19/158/16 21/161/18
f 9/155/80 15/85/13 7/151/6
