# Blender v2.71 (sub 0) OBJ File: 'WIP Dude Frame - unjoined.blend'
# www.blender.org
o Lower_Torso_Sphere.007
v 0.286034 2.964686 -1.100000
v 0.286034 3.964687 -0.850000
v 0.380830 2.964686 -1.089295
v 0.359285 3.964686 -0.841728
v 0.473781 2.964685 -1.057388
v 0.431111 3.964686 -0.817073
v 0.563077 2.964686 -1.004901
v 0.500113 3.964686 -0.776514
v 0.646982 2.964686 -0.932854
v 0.564948 3.964686 -0.720841
v 0.723860 2.964686 -0.842649
v 0.624354 3.964686 -0.651138
v 0.792217 2.964686 -0.736045
v 0.677176 3.964686 -0.568762
v 0.850722 2.964686 -0.615113
v 0.722384 3.964686 -0.475315
v 0.898236 2.964685 -0.482209
v 0.759099 3.964686 -0.372616
v 0.933834 2.964686 -0.339919
v 0.786607 3.964686 -0.262665
v 0.956823 2.964685 -0.191014
v 0.804371 3.964686 -0.147602
v 0.966756 2.964686 -0.038390
v 0.812046 3.964686 -0.029665
v 0.963440 2.964685 0.114981
v 0.809484 3.964686 0.088849
v 0.946938 2.964685 0.266113
v 0.796733 3.964686 0.205633
v 0.917573 2.964686 0.412067
v 0.774041 3.964686 0.318415
v 0.875916 2.964685 0.550000
v 0.741852 3.964686 0.425000
v 0.822777 2.964685 0.677227
v 0.700790 3.964686 0.523312
v 0.759191 2.964686 0.791274
v 0.651656 3.964686 0.611439
v 0.686396 2.964685 0.889919
v 0.595405 3.964686 0.687664
v 0.605808 2.964685 0.971242
v 0.533132 3.964686 0.750505
v 0.518996 2.964685 1.033661
v 0.466051 3.964686 0.798738
v 0.427650 2.964685 1.075962
v 0.395465 3.964686 0.831425
v 0.333548 2.964685 1.097320
v 0.322749 3.964686 0.847929
v 0.238520 2.964685 1.097321
v 0.249319 3.964686 0.847929
v 0.144418 2.964685 1.075962
v 0.176603 3.964686 0.831426
v 0.053071 2.964685 1.033662
v 0.106017 3.964686 0.798739
v -0.033740 2.964685 0.971243
v 0.038936 3.964686 0.750506
v -0.114328 2.964686 0.889920
v -0.023337 3.964686 0.687665
v -0.187124 2.964685 0.791275
v -0.079588 3.964686 0.611439
v -0.250709 2.964685 0.677228
v -0.128722 3.964686 0.523313
v -0.303848 2.964685 0.550000
v -0.169784 3.964686 0.425000
v -0.345506 2.964685 0.412068
v -0.201974 3.964686 0.318416
v -0.374871 2.964685 0.266114
v -0.224665 3.964686 0.205634
v -0.391372 2.964686 0.114981
v -0.237416 3.964686 0.088849
v -0.394688 2.964685 -0.038390
v -0.239979 3.964686 -0.029665
v -0.384755 2.964686 -0.191013
v -0.232303 3.964686 -0.147601
v -0.361766 2.964686 -0.339919
v -0.214539 3.964686 -0.262665
v -0.326168 2.964686 -0.482209
v -0.187031 3.964686 -0.372616
v -0.278654 2.964685 -0.615113
v -0.150316 3.964686 -0.475315
v -0.220149 2.964686 -0.736045
v -0.105108 3.964686 -0.568762
v -0.151792 2.964685 -0.842650
v -0.052286 3.964686 -0.651139
v -0.074913 2.964686 -0.932854
v 0.007120 3.964686 -0.720842
v 0.008991 2.964686 -1.004901
v 0.071956 3.964686 -0.776515
v 0.098288 2.964686 -1.057389
v 0.140958 3.964686 -0.817073
v 0.191239 2.964686 -1.089295
v 0.212783 3.964686 -0.841728
vt 0.891087 0.115226
vt 0.840335 0.115394
vt 0.841043 0.109605
vt 0.844228 0.564489
vt 0.894589 0.556625
vt 0.894309 0.562182
vt 0.843866 0.571679
vt 0.894078 0.568545
vt 0.843567 0.579915
vt 0.893901 0.575593
vt 0.843338 0.589035
vt 0.893781 0.583187
vt 0.843182 0.598863
vt 0.893720 0.591180
vt 0.843104 0.609207
vt 0.893720 0.599416
vt 0.843104 0.619865
vt 0.893781 0.607735
vt 0.843182 0.630631
vt 0.893901 0.615975
vt 0.843338 0.641295
vt 0.894078 0.623976
vt 0.843567 0.651648
vt 0.894309 0.631582
vt 0.894589 0.638644
vt 0.844228 0.670630
vt 0.614831 0.798441
vt 0.614773 0.805438
vt 0.564018 0.812549
vt 0.614729 0.812899
vt 0.563960 0.822204
vt 0.614699 0.820679
vt 0.563921 0.832271
vt 0.614683 0.828625
vt 0.563902 0.842555
vt 0.614683 0.836584
vt 0.563902 0.852855
vt 0.614699 0.844400
vt 0.563922 0.862970
vt 0.614729 0.851922
vt 0.563960 0.872704
vt 0.614773 0.859003
vt 0.564018 0.881867
vt 0.614831 0.865505
vt 0.564093 0.890281
vt 0.498706 0.547099
vt 0.504932 0.549004
vt 0.497587 0.597720
vt 0.511313 0.549579
vt 0.505845 0.598464
vt 0.517725 0.548812
vt 0.514143 0.597472
vt 0.524044 0.546719
vt 0.522321 0.594763
vt 0.530146 0.543340
vt 0.169267 0.664545
vt 0.119073 0.621593
vt 0.119004 0.615604
vt 0.169179 0.656795
vt 0.118945 0.608645
vt 0.169102 0.647790
vt 0.118896 0.600853
vt 0.169039 0.637705
vt 0.118859 0.592378
vt 0.168991 0.626738
vt 0.118834 0.583387
vt 0.168958 0.615102
vt 0.118821 0.574052
vt 0.168942 0.603022
vt 0.118821 0.564558
vt 0.168942 0.590735
vt 0.118834 0.555087
vt 0.118859 0.545825
vt 0.168991 0.566492
vt 0.118896 0.536951
vt 0.169039 0.555009
vt 0.118945 0.528640
vt 0.169102 0.544253
vt 0.119004 0.521051
vt 0.169179 0.534432
vt 0.119073 0.514334
vt 0.169267 0.525739
vt 0.841043 0.155637
vt 0.840335 0.148929
vt 0.891087 0.158624
vt 0.839855 0.142043
vt 0.890466 0.149713
vt 0.839613 0.135113
vt 0.890152 0.140744
vt 0.839613 0.128273
vt 0.890152 0.131893
vt 0.504932 0.413374
vt 0.530146 0.415646
vt 0.535913 0.419469
vt 0.839855 0.121657
vt 0.890466 0.123331
vt 0.092744 0.675476
vt 0.022861 0.675476
vt 0.016678 0.667488
vt 0.892004 0.107734
vt 0.843866 0.661491
vt 0.564093 0.803493
vt 0.489530 0.595254
vt 0.530217 0.590389
vt 0.168958 0.578479
vt 0.892004 0.167305
vt 0.517725 0.411845
vt 0.524044 0.413088
vt 0.511313 0.411941
vt 0.541233 0.424484
vt 0.498706 0.416117
vt 0.550125 0.437673
vt 0.487201 0.425294
vt 0.546001 0.430591
vt 0.482145 0.431549
vt 0.467375 0.493300
vt 0.466928 0.483746
vt 0.557903 0.491942
vt 0.553525 0.510248
vt 0.468709 0.502607
vt 0.556135 0.501296
vt 0.553525 0.445591
vt 0.477687 0.438759
vt 0.535913 0.538740
vt 0.482145 0.533896
vt 0.541233 0.533010
vt 0.487201 0.539471
vt 0.492757 0.543900
vt 0.550125 0.518624
vt 0.546001 0.526261
vt 0.473916 0.519767
vt 0.470904 0.511487
vt 0.467375 0.474133
vt 0.468709 0.464646
vt 0.558796 0.482369
vt 0.556135 0.454192
vt 0.557903 0.463308
vt 0.470904 0.455470
vt 0.473916 0.446785
vt 0.492757 0.420116
vt 0.477687 0.527285
vt 0.558796 0.472762
vt 0.052958 0.515200
vt 0.061249 0.514334
vt 0.069504 0.515200
vt 0.045120 0.690541
vt 0.069840 0.690541
vt 0.061590 0.692271
vt 0.099015 0.535174
vt 0.029458 0.527869
vt 0.092462 0.527869
vt 0.037221 0.687116
vt 0.029753 0.682061
vt 0.077885 0.687116
vt 0.116470 0.575884
vt 0.006749 0.564362
vt 0.113609 0.564362
vt 0.116564 0.624960
vt 0.000024 0.612722
vt 0.118266 0.612722
vt 0.085570 0.682061
vt 0.000000 0.600302
vt 0.118218 0.587943
vt 0.118821 0.600302
vt 0.011326 0.658252
vt 0.006909 0.647949
vt 0.109873 0.647949
vt 0.053296 0.692271
vt 0.104796 0.543806
vt 0.016442 0.543806
vt 0.099268 0.667487
vt 0.105015 0.658252
vt 0.113748 0.636780
vt 0.003512 0.636780
vt 0.001131 0.587943
vt 0.003396 0.575884
vt 0.109693 0.553599
vt 0.011126 0.553599
vt 0.044790 0.517784
vt 0.077561 0.517784
vt 0.036906 0.522035
vt 0.001202 0.624960
vt 0.022592 0.535174
vt 0.085264 0.522035
vn 0.000000 -0.589400 -0.807800
vn 0.000000 0.767200 -0.641300
vn 0.142500 0.766700 -0.626000
vn 0.175400 -0.591500 -0.787000
vn 0.271300 0.765100 -0.583900
vn 0.332400 -0.597200 -0.730000
vn 0.378200 0.762900 -0.524200
vn 0.460100 -0.604800 -0.650000
vn 0.462100 0.760500 -0.456200
vn 0.557400 -0.612800 -0.560200
vn 0.525400 0.758100 -0.386300
vn 0.628300 -0.620200 -0.469700
vn 0.572300 0.755900 -0.317900
vn 0.678800 -0.626500 -0.383000
vn 0.606400 0.754000 -0.252300
vn 0.714200 -0.631600 -0.301600
vn 0.630600 0.752600 -0.189700
vn 0.738500 -0.635400 -0.225400
vn 0.646900 0.751500 -0.129600
vn 0.754400 -0.638200 -0.153300
vn 0.656600 0.750800 -0.071400
vn 0.763800 -0.639900 -0.084200
vn 0.660700 0.750500 -0.014200
vn 0.659400 0.750600 0.042700
vn 0.766400 -0.640300 0.050400
vn 0.652500 0.751100 0.100300
vn 0.759900 -0.639100 0.118500
vn 0.639600 0.751900 0.159400
vn 0.747400 -0.636900 0.188900
vn 0.619600 0.753200 0.220600
vn 0.727500 -0.633700 0.262900
vn 0.590800 0.754900 0.284700
vn 0.698100 -0.629200 0.341600
vn 0.550700 0.756900 0.351800
vn 0.655700 -0.623500 0.425700
vn 0.496000 0.759300 0.421200
vn 0.595700 -0.616600 0.514600
vn 0.422900 0.761700 0.490800
vn 0.512400 -0.608800 0.605600
vn 0.327700 0.764100 0.555600
vn 0.400200 -0.600800 0.692000
vn 0.209300 0.766000 0.607800
vn 0.257100 -0.594000 0.762200
vn 0.072200 0.767100 0.637400
vn 0.089000 -0.590000 0.802500
vn -0.072200 0.767100 0.637400
vn -0.089000 -0.590000 0.802500
vn -0.209300 0.766000 0.607800
vn -0.257100 -0.594000 0.762200
vn -0.327700 0.764100 0.555600
vn -0.400200 -0.600800 0.691900
vn -0.422900 0.761700 0.490800
vn -0.512400 -0.608800 0.605600
vn -0.496000 0.759300 0.421200
vn -0.595700 -0.616600 0.514600
vn -0.550700 0.756900 0.351800
vn -0.655700 -0.623500 0.425700
vn -0.590800 0.754900 0.284700
vn -0.698100 -0.629200 0.341600
vn -0.619600 0.753200 0.220600
vn -0.727500 -0.633700 0.262900
vn -0.639600 0.751900 0.159400
vn -0.747400 -0.636900 0.188900
vn -0.652500 0.751100 0.100300
vn -0.759900 -0.639100 0.118500
vn -0.659400 0.750600 0.042700
vn -0.766400 -0.640300 0.050400
vn -0.660700 0.750500 -0.014200
vn -0.656600 0.750800 -0.071400
vn -0.763800 -0.639900 -0.084200
vn -0.646900 0.751500 -0.129600
vn -0.754400 -0.638200 -0.153300
vn -0.630600 0.752600 -0.189700
vn -0.738500 -0.635400 -0.225400
vn -0.606400 0.754000 -0.252300
vn -0.714200 -0.631600 -0.301600
vn -0.572300 0.755900 -0.317900
vn -0.678800 -0.626500 -0.383000
vn -0.525400 0.758100 -0.386300
vn -0.628300 -0.620200 -0.469700
vn -0.462100 0.760500 -0.456200
vn -0.557400 -0.612800 -0.560200
vn -0.378200 0.762900 -0.524200
vn -0.460200 -0.604800 -0.650000
vn -0.271300 0.765100 -0.583900
vn -0.332400 -0.597200 -0.730000
vn -0.142500 0.766700 -0.626000
vn -0.175400 -0.591500 -0.787000
vn 0.767700 -0.640600 -0.016800
vn -0.767700 -0.640600 -0.016800
s 1
f 1/1/1 2/2/2 4/3/3
f 3/4/4 4/5/3 6/6/5
f 5/7/6 6/6/5 8/8/7
f 7/9/8 8/8/7 10/10/9
f 9/11/10 10/10/9 12/12/11
f 11/13/12 12/12/11 14/14/13
f 13/15/14 14/14/13 16/16/15
f 15/17/16 16/16/15 18/18/17
f 17/19/18 18/18/17 20/20/19
f 19/21/20 20/20/19 22/22/21
f 21/23/22 22/22/21 24/24/23
f 24/24/23 26/25/24 25/26/25
f 26/27/24 28/28/26 27/29/27
f 28/28/26 30/30/28 29/31/29
f 30/30/28 32/32/30 31/33/31
f 32/32/30 34/34/32 33/35/33
f 34/34/32 36/36/34 35/37/35
f 36/36/34 38/38/36 37/39/37
f 38/38/36 40/40/38 39/41/39
f 40/40/38 42/42/40 41/43/41
f 42/42/40 44/44/42 43/45/43
f 44/46/42 46/47/44 45/48/45
f 46/47/44 48/49/46 47/50/47
f 47/50/47 48/49/46 50/51/48
f 49/52/49 50/51/48 52/53/50
f 51/54/51 52/53/50 54/55/52
f 53/56/53 54/57/52 56/58/54
f 55/59/55 56/58/54 58/60/56
f 57/61/57 58/60/56 60/62/58
f 59/63/59 60/62/58 62/64/60
f 61/65/61 62/64/60 64/66/62
f 63/67/63 64/66/62 66/68/64
f 65/69/65 66/68/64 68/70/66
f 67/71/67 68/70/66 70/72/68
f 70/72/68 72/73/69 71/74/70
f 72/73/69 74/75/71 73/76/72
f 74/75/71 76/77/73 75/78/74
f 76/77/73 78/79/75 77/80/76
f 78/79/75 80/81/77 79/82/78
f 80/83/77 82/84/79 81/85/80
f 82/84/79 84/86/81 83/87/82
f 84/86/81 86/88/83 85/89/84
f 86/88/83 88/90/85 87/91/86
f 6/92/5 88/93/85 86/94/83
f 90/95/87 2/2/2 1/1/1
f 88/90/85 90/95/87 89/96/88
f 37/97/37 55/98/55 57/99/57
f 3/100/4 1/1/1 4/3/3
f 5/7/6 3/4/4 6/6/5
f 7/9/8 5/7/6 8/8/7
f 9/11/10 7/9/8 10/10/9
f 11/13/12 9/11/10 12/12/11
f 13/15/14 11/13/12 14/14/13
f 15/17/16 13/15/14 16/16/15
f 17/19/18 15/17/16 18/18/17
f 19/21/20 17/19/18 20/20/19
f 21/23/22 19/21/20 22/22/21
f 23/101/89 21/23/22 24/24/23
f 23/101/89 24/24/23 25/26/25
f 25/102/25 26/27/24 27/29/27
f 27/29/27 28/28/26 29/31/29
f 29/31/29 30/30/28 31/33/31
f 31/33/31 32/32/30 33/35/33
f 33/35/33 34/34/32 35/37/35
f 35/37/35 36/36/34 37/39/37
f 37/39/37 38/38/36 39/41/39
f 39/41/39 40/40/38 41/43/41
f 41/43/41 42/42/40 43/45/43
f 43/103/43 44/46/42 45/48/45
f 45/48/45 46/47/44 47/50/47
f 49/52/49 47/50/47 50/51/48
f 51/54/51 49/52/49 52/53/50
f 53/104/53 51/54/51 54/55/52
f 55/59/55 53/56/53 56/58/54
f 57/61/57 55/59/55 58/60/56
f 59/63/59 57/61/57 60/62/58
f 61/65/61 59/63/59 62/64/60
f 63/67/63 61/65/61 64/66/62
f 65/69/65 63/67/63 66/68/64
f 67/71/67 65/69/65 68/70/66
f 69/105/90 67/71/67 70/72/68
f 69/105/90 70/72/68 71/74/70
f 71/74/70 72/73/69 73/76/72
f 73/76/72 74/75/71 75/78/74
f 75/78/74 76/77/73 77/80/76
f 77/80/76 78/79/75 79/82/78
f 79/106/78 80/83/77 81/85/80
f 81/85/80 82/84/79 83/87/82
f 83/87/82 84/86/81 85/89/84
f 85/89/84 86/88/83 87/91/86
f 2/107/2 90/108/87 4/109/3
f 88/93/85 6/92/5 90/108/87
f 84/110/81 8/111/7 86/94/83
f 80/112/77 12/113/11 82/114/79
f 14/115/13 12/113/11 80/112/77
f 87/91/86 88/90/85 89/96/88
f 28/116/26 26/117/24 68/118/66
f 64/119/62 30/120/28 66/121/64
f 80/112/77 78/122/75 16/123/15
f 56/124/54 38/125/36 58/126/56
f 52/53/50 40/127/38 54/55/52
f 48/49/46 44/46/42 50/51/48
f 48/49/46 46/47/44 44/46/42
f 40/127/38 52/53/50 42/128/40
f 62/129/60 60/130/58 34/131/32
f 32/132/30 62/129/60 34/131/32
f 30/120/28 28/116/26 66/121/64
f 24/133/23 22/134/21 70/135/68
f 76/136/73 74/137/71 20/138/19
f 16/123/15 76/136/73 18/139/17
f 44/46/42 52/53/50 50/51/48
f 8/111/7 84/110/81 10/140/9
f 90/108/87 6/92/5 4/109/3
f 74/137/71 22/134/21 20/138/19
f 60/130/58 36/141/34 34/131/32
f 8/111/7 6/92/5 86/94/83
f 22/134/21 72/142/69 70/135/68
f 10/140/9 84/110/81 82/114/79
f 38/125/36 36/141/34 58/126/56
f 26/117/24 70/135/68 68/118/66
f 62/129/60 30/120/28 64/119/62
f 78/122/75 76/136/73 16/123/15
f 36/141/34 60/130/58 58/126/56
f 70/135/68 26/117/24 24/133/23
f 40/127/38 56/124/54 54/55/52
f 28/116/26 68/118/66 66/121/64
f 89/96/88 90/95/87 1/1/1
f 30/120/28 62/129/60 32/132/30
f 56/124/54 40/127/38 38/125/36
f 22/134/21 74/137/71 72/142/69
f 76/136/73 20/138/19 18/139/17
f 12/113/11 10/140/9 82/114/79
f 14/115/13 80/112/77 16/123/15
f 52/53/50 44/46/42 42/128/40
f 89/143/88 1/144/1 3/145/4
f 49/146/49 43/147/43 45/148/45
f 11/149/12 83/150/82 9/151/10
f 51/152/51 53/153/53 41/154/41
f 19/155/20 75/156/74 17/157/18
f 27/158/27 67/159/67 25/160/25
f 53/153/53 39/161/39 41/154/41
f 69/162/90 21/163/22 23/164/89
f 59/165/59 61/166/61 31/167/31
f 43/147/43 49/146/49 41/154/41
f 47/168/47 49/146/49 45/148/45
f 11/149/12 13/169/14 79/170/78
f 37/97/37 39/161/39 55/98/55
f 59/165/59 35/171/35 57/99/57
f 33/172/33 35/171/35 59/165/59
f 29/173/29 31/167/31 63/174/63
f 19/155/20 21/163/22 71/175/70
f 75/156/74 19/155/20 73/176/72
f 79/170/78 15/177/16 77/178/76
f 49/146/49 51/152/51 41/154/41
f 87/179/86 5/180/6 85/181/84
f 3/145/4 5/180/6 89/143/88
f 13/169/14 15/177/16 79/170/78
f 65/182/65 67/159/67 27/158/27
f 69/162/90 23/164/89 25/160/25
f 81/183/80 83/150/82 11/149/12
f 5/180/6 7/184/8 85/181/84
f 81/183/80 11/149/12 79/170/78
f 75/156/74 15/177/16 17/157/18
f 65/182/65 29/173/29 63/174/63
f 21/163/22 69/162/90 71/175/70
f 5/180/6 87/179/86 89/143/88
f 29/173/29 65/182/65 27/158/27
f 35/171/35 37/97/37 57/99/57
f 15/177/16 75/156/74 77/178/76
f 83/150/82 7/184/8 9/151/10
f 39/161/39 53/153/53 55/98/55
f 19/155/20 71/175/70 73/176/72
f 33/172/33 59/165/59 31/167/31
f 67/159/67 69/162/90 25/160/25
f 7/184/8 83/150/82 85/181/84
f 61/166/61 63/174/63 31/167/31
