# Blender v2.71 (sub 0) OBJ File: 'WIP Dude Frame - unjoined.blend'
# www.blender.org
o Right_Upper_Arm_Sphere.027
v 0.232367 5.374270 2.450867
v 0.172159 5.479551 1.220248
v 0.259745 5.363108 2.448677
v 0.207589 5.465106 1.217415
v 0.288435 5.355839 2.446965
v 0.244718 5.455700 1.215198
v 0.317880 5.352605 2.445762
v 0.282823 5.451514 1.213642
v 0.347507 5.353468 2.445094
v 0.321163 5.452631 1.212777
v 0.376738 5.358413 2.444972
v 0.358992 5.459030 1.212619
v 0.405005 5.367341 2.445398
v 0.395573 5.470584 1.213171
v 0.431757 5.380080 2.446366
v 0.430193 5.487070 1.214423
v 0.456475 5.396382 2.447855
v 0.462180 5.508167 1.216350
v 0.478676 5.415930 2.449837
v 0.490911 5.533463 1.218915
v 0.497928 5.438342 2.452274
v 0.515827 5.562468 1.222068
v 0.513858 5.463183 2.455117
v 0.536441 5.594615 1.225748
v 0.526155 5.489969 2.458312
v 0.552354 5.629280 1.229882
v 0.534579 5.518179 2.461796
v 0.563256 5.665787 1.234391
v 0.538966 5.547264 2.465501
v 0.568934 5.703426 1.239187
v 0.539232 5.576658 2.469356
v 0.569278 5.741465 1.244175
v 0.535371 5.605788 2.473285
v 0.564281 5.779162 1.249260
v 0.527458 5.634088 2.477212
v 0.554041 5.815786 1.254342
v 0.515647 5.661006 2.481061
v 0.538756 5.850622 1.259323
v 0.500168 5.686020 2.484756
v 0.518725 5.882992 1.264105
v 0.481322 5.708641 2.488226
v 0.494336 5.912267 1.268595
v 0.459477 5.728430 2.491403
v 0.466066 5.937876 1.272706
v 0.435057 5.745001 2.494225
v 0.434464 5.959321 1.276358
v 0.408538 5.758033 2.496637
v 0.400145 5.976185 1.279480
v 0.380435 5.767271 2.498593
v 0.363776 5.988140 1.282011
v 0.351296 5.772535 2.500053
v 0.326068 5.994953 1.283902
v 0.321689 5.773723 2.500992
v 0.287752 5.996490 1.285115
v 0.292188 5.770812 2.501388
v 0.249574 5.992723 1.285628
v 0.263369 5.763859 2.501235
v 0.212279 5.983726 1.285431
v 0.235792 5.752999 2.500536
v 0.176591 5.969671 1.284526
v 0.209994 5.738443 2.499305
v 0.143206 5.950834 1.282933
v 0.186478 5.720474 2.497565
v 0.112773 5.927580 1.280681
v 0.165700 5.699443 2.495351
v 0.085884 5.900364 1.277815
v 0.148066 5.675759 2.492704
v 0.063064 5.869713 1.274390
v 0.133918 5.649882 2.489678
v 0.044755 5.836226 1.270474
v 0.123533 5.622317 2.486330
v 0.031315 5.800553 1.266142
v 0.117111 5.593599 2.482727
v 0.023005 5.763389 1.261478
v 0.114779 5.564289 2.478937
v 0.019986 5.725457 1.256574
v 0.116581 5.534955 2.475036
v 0.022319 5.687497 1.251525
v 0.122483 5.506170 2.471098
v 0.029956 5.650245 1.246429
v 0.132369 5.478494 2.467201
v 0.042750 5.614429 1.241386
v 0.146047 5.452464 2.463419
v 0.060451 5.580744 1.236493
v 0.163251 5.428589 2.459828
v 0.082715 5.549846 1.231845
v 0.183646 5.407331 2.456497
v 0.109109 5.522337 1.227534
v 0.206836 5.389107 2.453490
v 0.139118 5.498752 1.223643
vt 0.078440 0.927023
vt 0.075299 0.926717
vt 0.075708 0.823880
vt 0.072026 0.926509
vt 0.068684 0.926405
vt 0.070596 0.823639
vt 0.065339 0.926405
vt 0.062055 0.926509
vt 0.065474 0.823720
vt 0.058897 0.926717
vt 0.055926 0.927023
vt 0.060738 0.824117
vt 0.053200 0.927423
vt 0.058631 0.824425
vt 0.050772 0.927907
vt 0.056755 0.824800
vt 0.048689 0.928467
vt 0.055145 0.825232
vt 0.046992 0.929091
vt 0.976644 0.435604
vt 0.974195 0.359219
vt 0.975879 0.359484
vt 0.977655 0.359440
vt 0.979318 0.435775
vt 0.979488 0.359088
vt 0.981342 0.358435
vt 0.982167 0.434999
vt 0.983181 0.357495
vt 0.983588 0.434272
vt 0.984970 0.356284
vt 0.614831 0.801260
vt 0.616256 0.800654
vt 0.619964 0.905257
vt 0.618089 0.800102
vt 0.621380 0.904831
vt 0.620294 0.799615
vt 0.623084 0.904455
vt 0.622828 0.799204
vt 0.625042 0.904137
vt 0.625643 0.798875
vt 0.627217 0.903883
vt 0.628682 0.798636
vt 0.629566 0.903698
vt 0.631888 0.798490
vt 0.632043 0.903585
vt 0.635198 0.798441
vt 0.638547 0.798490
vt 0.637188 0.903585
vt 0.641870 0.798636
vt 0.639756 0.903698
vt 0.645102 0.798875
vt 0.642254 0.903883
vt 0.648181 0.799204
vt 0.644633 0.904137
vt 0.651047 0.799615
vt 0.653643 0.800102
vt 0.648854 0.904831
vt 0.655920 0.800654
vt 0.650613 0.905257
vt 0.657832 0.801260
vt 0.652091 0.905726
vt 0.969266 0.828716
vt 0.967637 0.828275
vt 0.968007 0.724485
vt 0.965902 0.827722
vt 0.966666 0.724057
vt 0.964095 0.827067
vt 0.965270 0.723551
vt 0.962251 0.826323
vt 0.963845 0.722976
vt 0.960406 0.825504
vt 0.962419 0.722343
vt 0.958595 0.824627
vt 0.961020 0.721665
vt 0.956855 0.823708
vt 0.959676 0.720955
vt 0.955219 0.822765
vt 0.085926 0.825715
vt 0.088523 0.929091
vt 0.086479 0.928467
vt 0.084085 0.927907
vt 0.082497 0.824800
vt 0.751915 0.338108
vt 0.749948 0.337663
vt 0.739387 0.320789
vt 0.080413 0.824425
vt 0.081388 0.927423
vt 0.904783 0.690613
vt 0.900521 0.688992
vt 0.907706 0.661495
vt 0.078135 0.824117
vt 0.073178 0.823720
vt 0.068011 0.823639
vt 0.063033 0.823880
vt 0.053834 0.825715
vt 0.977945 0.435809
vt 0.980734 0.435503
vt 0.984970 0.433336
vt 0.618863 0.905726
vt 0.634601 0.903548
vt 0.646847 0.904455
vt 0.969266 0.724825
vt 0.958411 0.720227
vt 0.084347 0.825232
vt 0.740730 0.305197
vt 0.764366 0.329355
vt 0.739922 0.308162
vt 0.741785 0.302428
vt 0.743065 0.299908
vt 0.744547 0.297687
vt 0.746200 0.295807
vt 0.747993 0.294306
vt 0.749891 0.293212
vt 0.751857 0.292548
vt 0.755839 0.292548
vt 0.759631 0.294306
vt 0.739375 0.311264
vt 0.761411 0.333786
vt 0.739101 0.314444
vt 0.761362 0.295807
vt 0.762938 0.297687
vt 0.764328 0.299908
vt 0.766447 0.305197
vt 0.767134 0.308162
vt 0.767553 0.311264
vt 0.767696 0.314444
vt 0.767561 0.317640
vt 0.767150 0.320789
vt 0.766471 0.323830
vt 0.765537 0.326704
vt 0.762982 0.331731
vt 0.753911 0.338108
vt 0.755897 0.337663
vt 0.748048 0.336781
vt 0.746251 0.335481
vt 0.744593 0.333786
vt 0.743106 0.331731
vt 0.740758 0.326704
vt 0.739942 0.323830
vt 0.739105 0.317640
vt 0.753852 0.292325
vt 0.759684 0.335481
vt 0.741819 0.329355
vt 0.765506 0.302428
vt 0.757834 0.336781
vt 0.757778 0.293212
vt 0.899245 0.687919
vt 0.898084 0.686610
vt 0.894998 0.679583
vt 0.894589 0.675483
vt 0.895502 0.681543
vt 0.894692 0.677550
vt 0.894998 0.671409
vt 0.896194 0.667674
vt 0.894692 0.673423
vt 0.895502 0.669480
vt 0.907707 0.690271
vt 0.912749 0.686337
vt 0.911654 0.687688
vt 0.897060 0.666027
vt 0.901887 0.661603
vt 0.903317 0.661146
vt 0.904783 0.660974
vt 0.906255 0.661091
vt 0.909108 0.662177
vt 0.911654 0.664318
vt 0.910432 0.663124
vt 0.912749 0.665735
vt 0.913696 0.667349
vt 0.914477 0.669127
vt 0.915077 0.671035
vt 0.915483 0.673036
vt 0.915688 0.675091
vt 0.915483 0.679202
vt 0.914477 0.683051
vt 0.915688 0.677160
vt 0.915077 0.681179
vt 0.913696 0.684781
vt 0.910432 0.688808
vt 0.909108 0.689674
vt 0.906255 0.690586
vt 0.901887 0.689808
vt 0.903317 0.690352
vt 0.897060 0.685090
vt 0.896194 0.683390
vt 0.900521 0.662336
vt 0.899245 0.663332
vt 0.898084 0.664570
vn -0.347500 -0.569400 -0.745000
vn -0.252300 -0.608200 -0.752600
vn -0.205000 -0.755500 0.622200
vn -0.152500 -0.633500 -0.758500
vn -0.050000 -0.644800 -0.762700
vn -0.012300 -0.790300 0.612600
vn 0.053000 -0.641700 -0.765000
vn 0.154700 -0.624600 -0.765500
vn 0.182800 -0.771000 0.610000
vn 0.253100 -0.593600 -0.763900
vn 0.346200 -0.549200 -0.760600
vn 0.365200 -0.699200 0.614600
vn 0.432200 -0.492400 -0.755400
vn 0.447100 -0.645200 0.619500
vn 0.509400 -0.424500 -0.748500
vn 0.520700 -0.580400 0.626100
vn 0.576400 -0.346500 -0.740000
vn 0.584600 -0.506100 0.634200
vn 0.631800 -0.260000 -0.730200
vn 0.637300 -0.423700 0.643600
vn 0.674600 -0.166800 -0.719100
vn 0.703900 -0.068700 -0.706900
vn 0.706000 -0.241400 0.665700
vn 0.719200 0.032500 -0.694000
vn 0.720100 0.134800 -0.680600
vn 0.721400 -0.047500 0.690800
vn 0.706700 0.236100 -0.667000
vn 0.708600 0.049000 0.703800
vn 0.679200 0.334600 -0.653300
vn 0.638100 0.428200 -0.639900
vn 0.643300 0.232000 0.729600
vn 0.584200 0.515300 -0.627000
vn 0.592000 0.315000 0.741800
vn 0.518600 0.594000 -0.615000
vn 0.529600 0.389900 0.753300
vn 0.442600 0.662800 -0.603900
vn 0.457000 0.455500 0.763900
vn 0.357600 0.720500 -0.594100
vn 0.376100 0.510500 0.773200
vn 0.265400 0.765800 -0.585700
vn 0.288200 0.553700 0.781200
vn 0.167600 0.798000 -0.578900
vn 0.195000 0.584300 0.787700
vn 0.066200 0.816300 -0.573800
vn -0.036800 0.820400 -0.570600
vn 0.000300 0.605600 0.795700
vn -0.139400 0.810300 -0.569200
vn -0.097500 0.596000 0.797000
vn -0.239700 0.786100 -0.569700
vn -0.193000 0.573000 0.796500
vn -0.335600 0.748300 -0.572100
vn -0.284400 0.537000 0.794200
vn -0.425400 0.697700 -0.576400
vn -0.507200 0.635200 -0.582500
vn -0.447900 0.429200 0.784300
vn -0.579500 0.562000 -0.590200
vn -0.516700 0.359500 0.777000
vn -0.640900 0.479600 -0.599400
vn -0.575200 0.281000 0.768200
vn -0.690100 0.389500 -0.609900
vn -0.622100 0.195200 0.758200
vn -0.726200 0.293600 -0.621500
vn -0.656600 0.103800 0.747100
vn -0.748600 0.193700 -0.634100
vn -0.677800 0.008600 0.735100
vn -0.756700 0.091700 -0.647300
vn -0.685600 -0.088600 0.722600
vn -0.750400 -0.010300 -0.660800
vn -0.679600 -0.185800 0.709600
vn -0.729900 -0.110400 -0.674600
vn -0.660100 -0.281200 0.696600
vn -0.695500 -0.206800 -0.688100
vn -0.627300 -0.373000 0.683600
vn -0.647900 -0.297300 -0.701300
vn -0.581900 -0.459300 0.671100
vn -0.588000 -0.380400 -0.713800
vn -0.517100 -0.454400 -0.725400
vn -0.457300 -0.608900 0.648100
vn -0.380400 -0.669300 0.638200
vn -0.436400 -0.517800 -0.735800
vn -0.524900 -0.538400 0.659200
vn -0.295800 -0.718500 0.629500
vn -0.109900 -0.779500 0.616600
vn 0.085900 -0.787400 0.610300
vn 0.276500 -0.741400 0.611400
vn 0.678100 -0.334900 0.654200
vn 0.720600 -0.145000 0.678000
vn 0.682400 0.142800 0.716900
vn 0.098500 0.601800 0.792600
vn -0.369900 0.488800 0.790100
s 1
f 2/1/1 4/2/2 3/3/3
f 3/3/3 4/2/2 6/4/4
f 6/4/4 8/5/5 7/6/6
f 7/6/6 8/5/5 10/7/7
f 10/7/7 12/8/8 11/9/9
f 11/9/9 12/8/8 14/10/10
f 14/10/10 16/11/11 15/12/12
f 16/11/11 18/13/13 17/14/14
f 18/13/13 20/15/15 19/16/16
f 20/15/15 22/17/17 21/18/18
f 21/18/18 22/17/17 24/19/19
f 23/20/20 24/21/19 26/22/21
f 26/22/21 28/23/22 27/24/23
f 27/24/23 28/23/22 30/25/24
f 30/25/24 32/26/25 31/27/26
f 31/27/26 32/26/25 34/28/27
f 33/29/28 34/28/27 36/30/29
f 36/31/29 38/32/30 37/33/31
f 38/32/30 40/34/32 39/35/33
f 40/34/32 42/36/34 41/37/35
f 42/36/34 44/38/36 43/39/37
f 44/38/36 46/40/38 45/41/39
f 45/41/39 46/40/38 48/42/40
f 47/43/41 48/42/40 50/44/42
f 49/45/43 50/44/42 52/46/44
f 52/46/44 54/47/45 53/48/46
f 54/47/45 56/49/47 55/50/48
f 56/49/47 58/51/49 57/52/50
f 58/51/49 60/53/51 59/54/52
f 59/54/52 60/53/51 62/55/53
f 62/55/53 64/56/54 63/57/55
f 64/56/54 66/58/56 65/59/57
f 66/58/56 68/60/58 67/61/59
f 68/62/58 70/63/60 69/64/61
f 70/63/60 72/65/62 71/66/63
f 72/65/62 74/67/64 73/68/65
f 74/67/64 76/69/66 75/70/67
f 76/69/66 78/71/68 77/72/69
f 78/71/68 80/73/70 79/74/71
f 79/74/71 80/73/70 82/75/72
f 81/76/73 82/75/72 84/77/74
f 83/78/75 84/79/74 86/80/76
f 86/80/76 88/81/77 87/82/78
f 30/83/24 28/84/22 12/85/8
f 89/86/79 90/87/80 2/1/1
f 88/81/77 90/87/80 89/86/79
f 79/88/71 85/89/81 37/90/31
f 1/91/82 2/1/1 3/3/3
f 5/92/83 3/3/3 6/4/4
f 5/92/83 6/4/4 7/6/6
f 9/93/84 7/6/6 10/7/7
f 9/93/84 10/7/7 11/9/9
f 13/94/85 11/9/9 14/10/10
f 13/94/85 14/10/10 15/12/12
f 15/12/12 16/11/11 17/14/14
f 17/14/14 18/13/13 19/16/16
f 19/16/16 20/15/15 21/18/18
f 23/95/20 21/18/18 24/19/19
f 25/96/86 23/20/20 26/22/21
f 25/96/86 26/22/21 27/24/23
f 29/97/87 27/24/23 30/25/24
f 29/97/87 30/25/24 31/27/26
f 33/29/28 31/27/26 34/28/27
f 35/98/88 33/29/28 36/30/29
f 35/99/88 36/31/29 37/33/31
f 37/33/31 38/32/30 39/35/33
f 39/35/33 40/34/32 41/37/35
f 41/37/35 42/36/34 43/39/37
f 43/39/37 44/38/36 45/41/39
f 47/43/41 45/41/39 48/42/40
f 49/45/43 47/43/41 50/44/42
f 51/100/89 49/45/43 52/46/44
f 51/100/89 52/46/44 53/48/46
f 53/48/46 54/47/45 55/50/48
f 55/50/48 56/49/47 57/52/50
f 57/52/50 58/51/49 59/54/52
f 61/101/90 59/54/52 62/55/53
f 61/101/90 62/55/53 63/57/55
f 63/57/55 64/56/54 65/59/57
f 65/59/57 66/58/56 67/61/59
f 67/102/59 68/62/58 69/64/61
f 69/64/61 70/63/60 71/66/63
f 71/66/63 72/65/62 73/68/65
f 73/68/65 74/67/64 75/70/67
f 75/70/67 76/69/66 77/72/69
f 77/72/69 78/71/68 79/74/71
f 81/76/73 79/74/71 82/75/72
f 83/103/75 81/76/73 84/77/74
f 85/104/81 83/78/75 86/80/76
f 85/104/81 86/80/76 87/82/78
f 2/105/1 44/106/36 4/107/2
f 2/105/1 90/108/80 88/109/77
f 88/109/77 86/110/76 84/111/74
f 84/111/74 82/112/72 80/113/70
f 78/114/68 74/115/64 70/116/60
f 6/117/4 44/106/36 40/118/32
f 30/83/24 12/85/8 8/119/5
f 68/120/58 66/121/56 64/122/54
f 70/116/60 68/120/58 64/122/54
f 60/123/51 58/124/49 56/125/47
f 54/126/45 52/127/44 50/128/42
f 48/129/40 56/125/47 50/128/42
f 46/130/38 88/109/77 84/111/74
f 44/106/36 42/131/34 40/118/32
f 32/132/25 30/83/24 40/118/32
f 32/132/25 40/118/32 34/133/27
f 87/82/78 88/81/77 89/86/79
f 28/84/22 26/134/21 24/135/19
f 24/135/19 22/136/17 20/137/15
f 12/85/8 28/84/22 16/138/11
f 16/138/11 14/139/10 12/85/8
f 12/85/8 10/140/7 8/119/5
f 44/106/36 6/117/4 4/107/2
f 1/91/82 89/86/79 2/1/1
f 78/114/68 76/141/66 74/115/64
f 34/133/27 40/118/32 38/142/30
f 18/143/13 28/84/22 24/135/19
f 56/125/47 46/130/38 70/116/60
f 60/123/51 56/125/47 62/144/53
f 36/145/29 34/133/27 38/142/30
f 56/125/47 54/126/45 50/128/42
f 20/137/15 18/143/13 24/135/19
f 46/130/38 56/125/47 48/129/40
f 84/111/74 78/114/68 70/116/60
f 46/130/38 44/106/36 88/109/77
f 70/116/60 64/122/54 62/144/53
f 6/117/4 30/83/24 8/119/5
f 56/125/47 70/116/60 62/144/53
f 74/115/64 72/146/62 70/116/60
f 2/105/1 88/109/77 44/106/36
f 70/116/60 46/130/38 84/111/74
f 40/118/32 30/83/24 6/117/4
f 84/111/74 80/113/70 78/114/68
f 28/84/22 18/143/13 16/138/11
f 85/89/81 87/147/78 89/148/79
f 7/149/6 11/150/9 5/151/83
f 7/149/6 9/152/84 11/150/9
f 15/153/12 19/154/16 13/155/85
f 15/153/12 17/156/14 19/154/16
f 75/157/67 67/158/59 69/159/61
f 19/154/16 21/160/18 29/161/87
f 31/162/26 33/163/28 29/161/87
f 35/164/88 37/90/31 33/163/28
f 39/165/33 43/166/37 37/90/31
f 39/165/33 41/167/35 43/166/37
f 43/166/37 45/168/39 47/169/41
f 47/169/41 49/170/43 51/171/89
f 51/171/89 53/172/46 55/173/48
f 59/174/52 63/175/55 57/176/50
f 59/174/52 61/177/90 63/175/55
f 63/175/55 65/178/57 67/158/59
f 71/179/63 75/157/67 69/159/61
f 71/179/63 73/180/65 75/157/67
f 75/157/67 77/181/69 79/88/71
f 83/182/75 85/89/81 81/183/73
f 1/184/82 3/185/3 85/89/81
f 11/150/9 3/185/3 5/151/83
f 19/154/16 11/150/9 13/155/85
f 33/163/28 37/90/31 29/161/87
f 55/173/48 37/90/31 51/171/89
f 43/166/37 47/169/41 51/171/89
f 85/89/81 79/88/71 81/183/73
f 85/89/81 3/185/3 19/154/16
f 79/88/71 55/173/48 75/157/67
f 1/184/82 85/89/81 89/148/79
f 57/176/50 63/175/55 67/158/59
f 3/185/3 11/150/9 19/154/16
f 21/160/18 27/186/23 29/161/87
f 27/186/23 21/160/18 25/187/86
f 57/176/50 67/158/59 55/173/48
f 55/173/48 67/158/59 75/157/67
f 55/173/48 79/88/71 37/90/31
f 21/160/18 23/188/20 25/187/86
f 37/90/31 43/166/37 51/171/89
f 85/89/81 19/154/16 29/161/87
f 37/90/31 85/89/81 29/161/87
